<?xml version="1.0" encoding="UTF-8"?>
<!-- Generated by @neplex/vectorizer (Using visioncortex VTracer) -->
<svg version="1.1" xmlns="http://www.w3.org/2000/svg" width="1458" height="268">
<path d="M0 0 C16.94 13.33 26.82 30.06 31.56 50.87 C31.87 53.9 31.72 56.76 31.49 59.8 C31.3 62.9 31.35 65.77 31.87 68.83 C35.37 69.12 35.37 69.12 37.96 67.94 C41.33 66.66 44.48 66.18 48.05 65.71 C49.2 65.54 50.35 65.37 51.54 65.2 C52.63 65.08 53.73 64.96 54.87 64.83 C55.94 64.69 57.01 64.54 58.11 64.4 C59.02 64.54 59.93 64.68 60.87 64.83 C61.05 67.57 61.05 67.57 60.25 71.43 C60.05 72.48 60.05 72.48 59.84 73.54 C59.55 75.05 59.24 76.56 58.93 78.07 C58.09 82.09 57.35 86.13 56.61 90.16 C56.38 91.39 56.38 91.39 56.14 92.65 C46.93 142.59 50.45 194.2 59.34 243.87 C59.52 244.85 59.69 245.83 59.87 246.83 C60.11 247.94 60.35 249.05 60.6 250.19 C60.69 251.07 60.78 251.94 60.87 252.83 C58.33 253.11 56.61 252.9 54.12 252.46 C52.45 252.22 50.78 251.98 49.11 251.75 C48.13 251.6 47.16 251.46 46.16 251.31 C-0.41 244.61 -47.33 242.96 -94.25 246.3 C-95.98 246.4 -95.98 246.4 -97.73 246.51 C-101.19 246.78 -101.19 246.78 -104.77 247.58 C-110.22 248.59 -110.22 248.59 -113.13 247.83 C-113.27 245.42 -113.27 245.42 -112.6 242.14 C-112.38 240.95 -112.15 239.76 -111.91 238.53 C-111.53 236.7 -111.53 236.7 -111.13 234.83 C-110.73 232.67 -110.32 230.5 -109.91 228.34 C-109.47 226.09 -109.02 223.85 -108.57 221.6 C-108.33 220.4 -108.09 219.21 -107.84 217.97 C-107.34 215.47 -106.84 212.97 -106.34 210.46 C-105.56 206.62 -104.8 202.77 -104.03 198.92 C-103.54 196.48 -103.06 194.04 -102.57 191.6 C-102.22 189.87 -102.22 189.87 -101.87 188.11 C-101.66 187.05 -101.44 185.99 -101.22 184.9 C-100.94 183.5 -100.94 183.5 -100.66 182.07 C-100.13 179.83 -100.13 179.83 -99.13 177.83 C-94.43 176.18 -90.78 175.98 -86.13 177.83 C-84.02 180.92 -82.66 184.33 -81.2 187.77 C-78.18 194.73 -78.18 194.73 -72.32 199.22 C-66.5 200.87 -60.44 201.72 -54.54 200.03 C-53.84 199.44 -53.84 199.44 -53.13 198.83 C-53.8 192.04 -59.84 185.51 -63.8 180.23 C-65.13 177.83 -65.13 177.83 -64.97 175.61 C-63.74 172.99 -61.99 172.34 -59.45 171.02 C-51.49 166.46 -47.67 161.4 -44.83 152.66 C-42.8 144.42 -43.92 137.22 -48.13 129.83 C-54.25 123.13 -62.44 121.02 -71.13 119.83 C-71.81 119.73 -72.49 119.63 -73.19 119.52 C-77.99 118.8 -82.78 118.26 -87.62 117.85 C-89.39 117.67 -91.15 117.44 -92.9 117.17 C-98.48 116.31 -104.26 115.45 -109.13 118.83 C-112.61 124.56 -112.55 132.13 -113.23 138.63 C-114.32 148.45 -116.47 158.08 -118.47 167.75 C-119.42 172.36 -120.35 176.98 -121.28 181.6 C-121.99 185.15 -122.71 188.7 -123.43 192.25 C-124.65 198.32 -125.88 204.39 -127.1 210.47 C-128.04 215.17 -128.99 219.86 -129.94 224.56 C-130.39 226.8 -130.84 229.05 -131.29 231.29 C-131.91 234.39 -132.54 237.5 -133.17 240.6 C-133.36 241.53 -133.54 242.45 -133.73 243.41 C-135.02 249.72 -135.02 249.72 -136.13 250.83 C-139.02 251.47 -141.85 252 -144.76 252.46 C-145.57 252.62 -146.39 252.79 -147.23 252.96 C-149.55 253.31 -149.55 253.31 -153.13 252.83 C-153.3 249.43 -152.87 247.12 -152.13 243.83 C-151.75 241.43 -151.37 239.03 -151.01 236.62 C-150.8 235.29 -150.58 233.96 -150.37 232.63 C-148.23 219.4 -146.19 206.2 -145.13 192.83 C-144.97 190.86 -144.97 190.86 -144.8 188.85 C-141.88 149.77 -144.28 109.11 -152.78 70.83 C-153.13 68.83 -153.13 68.83 -153.13 64.83 C-151.04 64.59 -151.04 64.59 -148.07 64.96 C-146.99 65.06 -145.91 65.16 -144.79 65.26 C-142.02 65.69 -139.71 66.23 -137.07 67.06 C-133.2 68.17 -130.11 68.95 -126.13 67.83 C-124.59 63.01 -124.54 58.53 -124.41 53.5 C-123.85 33.85 -111.68 16.77 -97.91 3.72 C-70.34 -20.06 -29.43 -20.37 0 0 Z M-102.38 18.52 C-112.8 31.58 -120.12 49.34 -119.17 66.38 C-118.51 70.07 -118.51 70.07 -115.26 71.39 C-110.87 72.1 -106.7 72.26 -102.26 72.27 C-100.65 72.33 -99.04 72.4 -97.43 72.47 C-94.19 72.61 -90.95 72.7 -87.71 72.75 C-83.72 72.81 -79.74 72.98 -75.76 73.19 C-54.86 74.29 -33.94 74.1 -13.05 73 C-9.45 72.85 -5.85 72.77 -2.24 72.71 C0.92 72.64 4.07 72.51 7.23 72.36 C8.78 72.3 10.33 72.27 11.88 72.26 C16.55 72.24 20.71 72.18 24.87 69.83 C28.71 56.53 22.08 39.79 15.98 28.25 C6.06 11.47 -9.62 0.22 -28.07 -5.66 C-55.89 -12.51 -83.63 -2.72 -102.38 18.52 Z M-27.13 128.83 C-32.21 135.37 -34.11 141.57 -33.13 149.83 C-31.36 155.32 -28.84 158.47 -24.13 161.83 C-17.07 165.4 -9.53 167.75 -1.95 169.94 C2.86 171.46 2.86 171.46 4.87 172.83 C5.86 175.61 5.82 178.04 4.87 180.83 C1.81 182.22 0.12 182.6 -3.13 182.83 C-3.98 182.9 -4.82 182.97 -5.69 183.04 C-14.81 183.4 -23.25 181.77 -30.88 176.71 C-32.94 175.43 -32.94 175.43 -35.13 175.83 C-38.57 180.28 -43.13 187.06 -43.13 192.83 C-28.46 201.25 -10.42 203.05 5.87 198.83 C15.42 195.34 22.68 190.07 27.37 180.89 C28.48 174.06 29.01 167.71 24.87 161.83 C20.14 156.89 15.43 154.54 8.93 152.64 C7.4 152.17 5.87 151.7 4.34 151.23 C3.6 151 2.86 150.77 2.09 150.54 C-2.06 149.22 -6.23 147.79 -10.13 145.83 C-10.79 140.67 -10.79 140.67 -10.13 137.83 C-7.7 136.39 -7.7 136.39 -4.13 135.83 C-3.49 135.7 -2.85 135.57 -2.19 135.44 C6.05 134.05 15.05 135.03 22.24 139.33 C23.44 139.5 24.63 139.66 25.87 139.83 C29.06 135.5 31.17 130.93 32.87 125.83 C32.37 124.35 32.37 124.35 31.87 122.83 C29.49 121.61 29.49 121.61 26.62 120.71 C25.66 120.37 24.71 120.04 23.73 119.7 C7.14 114.67 -14.56 115.86 -27.13 128.83 Z " fill="#FFA800" transform="translate(153.1328125,14.16796875)"/>
<path d="M0 0 C26.55 -0.55 26.55 -0.55 36.56 4.45 C40.24 4.89 43.92 5.27 47.61 5.62 C49.6 5.82 51.58 6.13 53.56 6.45 C53.56 7.11 53.56 7.77 53.56 8.45 C54.88 8.45 56.2 8.45 57.56 8.45 C57.56 9.11 57.56 9.77 57.56 10.45 C58.38 10.62 59.21 10.78 60.06 10.95 C60.88 11.12 61.71 11.28 62.56 11.45 C62.56 12.11 62.56 12.77 62.56 13.45 C63.55 13.45 64.54 13.45 65.56 13.45 C70.49 17.77 73.33 22.36 75.56 28.45 C75.9 29.36 76.24 30.26 76.59 31.2 C79.21 40.06 78.32 50.99 74.56 59.45 C73.9 59.45 73.24 59.45 72.56 59.45 C72.56 60.44 72.56 61.43 72.56 62.45 C71.9 62.45 71.24 62.45 70.56 62.45 C70.56 63.11 70.56 63.77 70.56 64.45 C69.9 64.45 69.24 64.45 68.56 64.45 C68.23 65.44 67.9 66.43 67.56 67.45 C66.9 67.45 66.24 67.45 65.56 67.45 C65.56 68.11 65.56 68.77 65.56 69.45 C64.9 69.45 64.24 69.45 63.56 69.45 C63.56 70.11 63.56 70.77 63.56 71.45 C62.69 71.56 61.82 71.66 60.93 71.77 C60.15 71.99 59.36 72.22 58.56 72.45 C59 75.1 59 75.1 60.56 77.45 C61.22 77.45 61.88 77.45 62.56 77.45 C62.89 79.12 63.22 80.79 63.56 82.45 C64.22 82.45 64.88 82.45 65.56 82.45 C65.56 83.11 65.56 83.77 65.56 84.45 C66.22 84.45 66.88 84.45 67.56 84.45 C67.89 86.12 68.22 87.79 68.56 89.45 C69.22 89.45 69.88 89.45 70.56 89.45 C70.56 90.44 70.56 91.43 70.56 92.45 C71.22 92.45 71.88 92.45 72.56 92.45 C75.56 96.84 75.56 96.84 75.56 99.45 C76.22 99.45 76.88 99.45 77.56 99.45 C77.56 100.11 77.56 100.77 77.56 101.45 C78.22 101.45 78.88 101.45 79.56 101.45 C79.61 103.93 79.61 103.93 78.56 106.45 C75.63 106.94 75.63 106.94 71.75 106.76 C71.06 106.73 70.38 106.7 69.68 106.68 C67.49 106.58 65.31 106.46 63.12 106.33 C61.65 106.26 60.17 106.2 58.7 106.14 C47.96 105.66 47.96 105.66 45.56 104.45 C45.56 103.46 45.56 102.47 45.56 101.45 C44.9 101.45 44.24 101.45 43.56 101.45 C40.56 97.07 40.56 97.07 40.56 94.45 C39.9 94.45 39.24 94.45 38.56 94.45 C38.56 93.46 38.56 92.47 38.56 91.45 C37.57 90.96 37.57 90.96 36.56 90.45 C35.47 89.2 34.43 87.9 33.43 86.58 C32.89 85.88 32.35 85.18 31.8 84.46 C30.56 82.45 30.56 82.45 30.56 79.45 C26.93 78.02 23.44 77.34 19.55 77.62 C18.07 78.53 18.07 78.53 16.56 79.45 C16.36 82.56 16.73 85.34 17.24 88.4 C17.39 89.75 17.51 91.1 17.62 92.45 C17.74 93.51 17.85 94.57 17.98 95.66 C18.11 99.42 18.01 101.97 16.56 105.45 C11.72 108.55 6.91 109.22 1.3 109.45 C0.58 109.49 -0.14 109.52 -0.89 109.55 C-5.95 109.57 -10.59 108.97 -14.44 105.45 C-21.56 93.39 -19.66 75.31 -19.47 61.87 C-19.41 56.9 -19.54 51.99 -19.84 47.03 C-22.62 1.6 -22.62 1.6 0 0 Z M14.75 34.47 C14.1 41.53 13.95 48.76 16.56 55.45 C21.43 58.08 25.24 57.3 30.48 55.96 C32.52 55.46 34.49 55.19 36.58 54.97 C37.56 54.8 38.54 54.63 39.56 54.45 C39.56 53.79 39.56 53.13 39.56 52.45 C40.55 52.45 41.54 52.45 42.56 52.45 C42.56 51.79 42.56 51.13 42.56 50.45 C43.55 50.12 44.54 49.79 45.56 49.45 C46.04 46.28 46.04 46.28 45.93 42.58 C45.94 41.32 45.95 40.07 45.95 38.77 C45.83 35.51 45.83 35.51 44.16 33.51 C42.6 32.27 42.6 32.27 40.56 32.45 C40.56 31.79 40.56 31.13 40.56 30.45 C34.3 27.1 25.34 25.45 18.41 27.14 C15.58 29.14 15.42 31.13 14.75 34.47 Z " fill="#073467" transform="translate(252.44464111328125,133.5468292236328)"/>
<path d="M0 0 C1.16 -0.06 1.16 -0.06 2.34 -0.12 C9.43 -0.47 16.52 -0.69 23.62 -0.87 C28.4 -0.99 33.16 -1.15 37.94 -1.43 C63.35 -2.87 63.35 -2.87 71.63 0.51 C75.73 5.42 75.9 10.36 75.35 16.54 C74.55 20.05 73.67 22.54 71.63 25.51 C64.46 29.82 54.49 27.68 46.57 26.95 C44.16 26.81 41.74 26.67 39.32 26.56 C35.92 26.39 32.54 26.2 29.14 25.92 C28.14 25.84 27.14 25.76 26.11 25.68 C25.22 25.6 24.33 25.52 23.41 25.44 C22.53 25.47 22.53 25.47 21.63 25.51 C21.96 26.17 22.29 26.83 22.63 27.51 C22.42 28.37 22.21 29.23 21.99 30.12 C21.11 34.48 21.11 34.48 22.63 38.51 C28.65 39.46 34.55 38.88 40.6 38.45 C61.77 37.11 61.77 37.11 67.3 41.75 C70.19 46.93 70.4 51.72 68.9 57.41 C67.23 60.4 65.99 62.1 62.64 63.12 C54.37 64.43 45.89 63.83 37.58 63.18 C30.03 62.39 30.03 62.39 22.63 63.51 C20.59 68.02 21.64 71.8 22.63 76.51 C22.3 77.17 21.97 77.83 21.63 78.51 C23.61 78.63 23.61 78.63 26.2 78.36 C27.22 78.28 28.24 78.2 29.3 78.12 C30.42 78.04 31.54 77.95 32.69 77.86 C36.24 77.67 39.8 77.51 43.35 77.34 C45.83 77.2 48.31 77.03 50.79 76.81 C67.06 75.43 67.06 75.43 72.63 78.51 C76.15 83.13 76.81 87.72 76.7 93.42 C75.95 97.25 75.05 99.44 72.63 102.51 C60.65 109.57 45.68 109.8 32.13 110.32 C30.69 110.4 30.69 110.4 29.22 110.48 C17.27 111.1 3.47 111.48 -6.7 104.19 C-14.8 96.02 -13.98 80.51 -14.13 69.86 C-14.1 63.92 -13.83 58 -13.49 52.07 C-13.42 50.87 -13.36 49.66 -13.29 48.42 C-10.42 0.51 -10.42 0.51 0 0 Z " fill="#073467" transform="translate(1181.365478515625,136.48974609375)"/>
<path d="M0 0 C3.28 0.01 6.56 -0.02 9.84 -0.05 C24.32 -0.1 37.98 1.38 52.12 4.45 C52.84 4.6 53.56 4.76 54.31 4.92 C58.57 5.86 62.78 6.93 66.99 8.07 C68.24 8.41 69.49 8.74 70.78 9.09 C83.29 12.57 95.23 17.24 107.12 22.45 C108.67 23.11 108.67 23.11 110.26 23.79 C111.27 24.23 112.28 24.67 113.32 25.12 C114.24 25.52 115.16 25.92 116.11 26.33 C116.77 26.7 117.43 27.07 118.12 27.45 C118.12 28.11 118.12 28.77 118.12 29.45 C120.12 30.11 122.12 30.78 124.12 31.45 C126.6 32.77 128.95 34.28 131.3 35.82 C132.23 36.4 132.23 36.4 133.17 36.99 C136.45 39.11 139.14 41.03 141.12 44.45 C140.97 46.86 140.27 48.19 139.05 50.26 C135.89 52.2 132.59 51.15 129.12 50.45 C126.26 49.58 123.51 48.49 120.74 47.38 C84.34 33.5 47.06 26.22 8.12 26.2 C6.87 26.2 6.87 26.2 5.6 26.19 C-43.83 26.26 -90.06 38.73 -134.89 58.94 C-135.9 59.4 -136.91 59.85 -137.96 60.32 C-138.86 60.73 -139.76 61.14 -140.7 61.56 C-142.88 62.45 -142.88 62.45 -144.88 62.45 C-144.88 63.11 -144.88 63.77 -144.88 64.45 C-148.64 66.69 -152.67 68.2 -156.95 69.07 C-157.59 68.86 -158.23 68.66 -158.88 68.45 C-159.35 64.97 -159.42 63.15 -157.26 60.31 C-154.49 57.99 -151.73 55.68 -148.88 53.45 C-148.29 52.98 -147.71 52.51 -147.1 52.03 C-133.69 41.48 -119.69 32.52 -104.31 25.14 C-100.99 23.56 -100.99 23.56 -98.37 21.9 C-95.3 20.1 -92.09 18.86 -88.76 17.63 C-87.72 17.25 -87.72 17.25 -86.65 16.86 C-74.72 12.52 -62.66 8.75 -50.32 5.76 C-49.54 5.57 -48.77 5.38 -47.97 5.18 C-45.28 4.55 -42.59 3.99 -39.88 3.45 C-38.64 3.18 -37.39 2.92 -36.11 2.65 C-24.08 0.28 -12.23 -0.05 0 0 Z " fill="#FFA800" transform="translate(1061.884033203125,25.553955078125)"/>
<path d="M0 0 C3.01 -0.1 5.99 -0.14 9 -0.12 C9.86 -0.13 10.72 -0.13 11.6 -0.14 C13.73 -0.13 15.87 -0.07 18 0 C18 0.33 18 0.66 18 1 C20.6 1.29 23.2 1.45 25.81 1.62 C26.9 1.81 26.9 1.81 28 2 C28 2.66 28 3.32 28 4 C30.51 4.4 30.51 4.4 33.5 4.5 C36.59 4.66 36.59 4.66 39 5 C39 5.66 39 6.32 39 7 C40.86 7.61 40.86 7.61 43 8 C43.99 8.33 44.98 8.66 46 9 C46.81 13.43 45.11 18.1 43 22 C42.34 22 41.68 22 41 22 C41 22.82 41 23.65 41 24.5 C41 25.32 41 26.15 41 27 C40.34 27 39.68 27 39 27 C39 28.32 39 29.64 39 31 C35.46 32.02 33.52 32.17 30 31 C30 30.34 30 29.68 30 29 C29.28 29 28.56 29 27.81 29 C25 29 25 29 22.67 28.02 C19.75 26.91 17.59 26.74 14.48 26.73 C13.46 26.73 12.44 26.73 11.38 26.73 C10.33 26.73 9.27 26.74 8.19 26.75 C7.11 26.74 6.04 26.73 4.93 26.73 C3.92 26.73 2.9 26.73 1.86 26.73 C0.46 26.74 0.46 26.74 -0.97 26.74 C-1.97 26.87 -1.97 26.87 -3 27 C-3 27.66 -3 28.32 -3 29 C-3.66 29 -4.32 29 -5 29 C-5.58 32.42 -5.58 32.42 -5 36 C-1.29 38.01 2.76 38.67 6.88 39.5 C14.53 41.08 14.53 41.08 18 42.12 C21.04 43.09 21.04 43.09 24.44 43.5 C25.28 43.66 26.13 43.83 27 44 C27 44.66 27 45.32 27 46 C28.65 46.39 30.33 46.71 32 47 C35.31 47.94 35.31 47.94 38 49 C38 49.66 38 50.32 38 51 C38.99 51 39.98 51 41 51 C42.69 52.38 42.69 52.38 44 54 C44 54.66 44 55.32 44 56 C44.66 56 45.32 56 46 56 C46 56.66 46 57.32 46 58 C46.66 58 47.32 58 48 58 C49 61 49 61 48.94 64.69 C48.96 65.78 48.98 66.87 49 68 C49.66 68 50.32 68 51 68 C51.62 74.56 50.45 80.88 48 87 C47.34 87 46.68 87 46 87 C46 87.99 46 88.98 46 90 C45.34 90 44.68 90 44 90 C43.5 91.49 43.5 91.49 43 93 C42.34 93 41.68 93 41 93 C41 93.66 41 94.32 41 95 C40.34 95 39.68 95 39 95 C39 95.66 39 96.32 39 97 C37.67 97.33 36.33 97.67 35 98 C35 98.66 35 99.32 35 100 C34.01 100 33.02 100 32 100 C32 100.66 32 101.32 32 102 C29.66 102.41 27.34 102.51 24.97 102.66 C24.32 102.77 23.67 102.88 23 103 C23 103.66 23 104.32 23 105 C20.81 105.38 20.81 105.38 18 105.56 C16.33 105.68 14.66 105.81 13 106 C13 106.33 13 106.66 13 107 C10.49 107.1 8.01 107.14 5.5 107.12 C4.43 107.13 4.43 107.13 3.33 107.14 C1.55 107.13 -0.22 107.07 -2 107 C-2 106.67 -2 106.34 -2 106 C-3.68 105.81 -5.37 105.67 -7.06 105.56 C-11.67 105.19 -15.61 104.41 -20 103 C-20.97 102.83 -21.94 102.67 -22.94 102.5 C-23.62 102.33 -24.3 102.17 -25 102 C-25 101.34 -25 100.68 -25 100 C-26.32 100 -27.64 100 -29 100 C-29 99.34 -29 98.68 -29 98 C-30.99 97.61 -32.99 97.28 -35 97 C-35.66 96.67 -36.32 96.34 -37 96 C-37.25 92.94 -37.25 92.94 -37 90 C-36.34 90 -35.68 90 -35 90 C-34.6 88.35 -34.29 86.68 -34 85 C-33.06 81.19 -33.06 81.19 -32 78 C-31.34 78 -30.68 78 -30 78 C-30 77.01 -30 76.02 -30 75 C-29.34 75 -28.68 75 -28 75 C-28 74.34 -28 73.68 -28 73 C-25.5 72.75 -25.5 72.75 -23 73 C-23 73.66 -23 74.32 -23 75 C-21.85 75.17 -20.69 75.33 -19.5 75.5 C-18.35 75.67 -17.19 75.83 -16 76 C-16 76.66 -16 77.32 -16 78 C-15.17 78 -14.35 78 -13.5 78 C-12.67 78 -11.85 78 -11 78 C-11 78.66 -11 79.32 -11 80 C-6.92 80.48 -2.82 80.41 1.28 80.43 C3.36 80.44 5.44 80.49 7.52 80.54 C8.82 80.54 10.12 80.55 11.46 80.56 C13.27 80.58 13.27 80.58 15.11 80.6 C16.06 80.4 17.02 80.2 18 80 C19.52 77.42 20 75.73 20 72.75 C19.5 71.88 19.5 71.88 19 71 C15.97 70.34 15.97 70.34 13 70 C13 69.34 13 68.68 13 68 C12.01 68 11.02 68 10 68 C9.01 68 8.02 68 7 68 C7 67.34 7 66.68 7 66 C5.99 66 4.98 66 3.94 66 C-0.14 66 -3.12 65.2 -7 64 C-8.13 63.84 -9.27 63.67 -10.44 63.5 C-11.28 63.34 -12.13 63.17 -13 63 C-13 62.34 -13 61.68 -13 61 C-14.66 60.62 -16.33 60.3 -18 60 C-20.81 59.06 -20.81 59.06 -23 58 C-23 57.34 -23 56.68 -23 56 C-23.99 56 -24.98 56 -26 56 C-26 55.34 -26 54.68 -26 54 C-26.6 53.86 -27.21 53.72 -27.83 53.58 C-30.58 52.85 -31.21 52.06 -32.75 49.69 C-36.51 42.61 -36.41 31.81 -35 24 C-34.34 24 -33.68 24 -33 24 C-32.85 22.7 -32.85 22.7 -32.69 21.38 C-31.62 16.13 -28.88 13.35 -24.67 10.32 C-23.06 9.26 -21.43 8.22 -19.79 7.2 C-19.2 6.8 -18.61 6.41 -18 6 C-18 5.67 -18 5.34 -18 5 C-16.53 4.62 -15.05 4.3 -13.56 4 C-10.49 3.57 -10.49 3.57 -8 2 C-6.65 1.79 -5.3 1.63 -3.94 1.5 C-2.64 1.34 -1.34 1.17 0 1 C0 0.67 0 0.34 0 0 Z " fill="#063367" transform="translate(645,135)"/>
<path d="M0 0 C2.28 -0.26 2.28 -0.26 5.44 -0.27 C6.58 -0.27 7.72 -0.27 8.9 -0.27 C10.71 -0.26 10.71 -0.26 12.56 -0.25 C14.33 -0.26 14.33 -0.26 16.14 -0.27 C22.16 -0.26 27.33 -0.05 33 2 C33.8 2.16 34.61 2.33 35.44 2.5 C35.95 2.66 36.47 2.83 37 3 C37 3.66 37 4.32 37 5 C37.99 5 38.98 5 40 5 C40 5.66 40 6.32 40 7 C40.83 7.16 41.65 7.33 42.5 7.5 C43.33 7.66 44.15 7.83 45 8 C45 8.66 45 9.32 45 10 C45.66 10 46.32 10 47 10 C48.62 11.38 48.62 11.38 50 13 C50 13.66 50 14.32 50 15 C50.66 15 51.32 15 52 15 C52 16.32 52 17.64 52 19 C52.66 19 53.32 19 54 19 C54.33 21 54.67 23 55 25 C55.66 25 56.32 25 57 25 C57 27.33 57 29.67 57 32 C57.66 32 58.32 32 59 32 C59.21 34.87 59.28 37.63 59.25 40.5 C59.26 41.72 59.26 41.72 59.27 42.96 C59.27 44.97 59.14 46.99 59 49 C58.34 49 57.68 49 57 49 C57 50.16 57 51.31 57 52.5 C57 53.66 57 54.81 57 56 C56.34 56 55.68 56 55 56 C54.84 56.99 54.67 57.98 54.5 59 C54.34 59.99 54.17 60.98 54 62 C53.34 62 52.68 62 52 62 C52 63.32 52 64.64 52 66 C49.62 68.75 49.62 68.75 47 71 C46.34 71 45.68 71 45 71 C45 71.66 45 72.32 45 73 C43.33 73.33 41.67 73.67 40 74 C40 74.66 40 75.32 40 76 C39.01 76 38.02 76 37 76 C37 76.66 37 77.32 37 78 C34.66 78.41 32.34 78.51 29.97 78.66 C29.32 78.77 28.67 78.88 28 79 C28 79.66 28 80.32 28 81 C25.43 81.26 25.43 81.26 21.88 81.27 C19.98 81.27 19.98 81.27 18.05 81.27 C17.05 81.27 17.05 81.27 16.04 81.26 C14.01 81.25 11.98 81.26 9.95 81.27 C8.69 81.27 7.43 81.27 6.12 81.27 C4.95 81.26 3.78 81.26 2.57 81.26 C1.3 81.13 1.3 81.13 0 81 C0 80.34 0 79.68 0 79 C-1.82 78.6 -1.82 78.6 -4 78.5 C-6.25 78.34 -6.25 78.34 -8 78 C-8 77.34 -8 76.68 -8 76 C-9.32 76 -10.64 76 -12 76 C-12 75.34 -12 74.68 -12 74 C-12.83 73.83 -13.65 73.67 -14.5 73.5 C-15.33 73.33 -16.15 73.17 -17 73 C-17 72.34 -17 71.68 -17 71 C-17.66 71 -18.32 71 -19 71 C-19.12 70.36 -19.25 69.72 -19.38 69.06 C-19.58 68.38 -19.79 67.7 -20 67 C-22.02 66.35 -22.02 66.35 -24 66 C-24 65.34 -24 64.68 -24 64 C-24.66 64 -25.32 64 -26 64 C-26.5 60.5 -26.5 60.5 -27 57 C-27.66 57 -28.32 57 -29 57 C-29 55.33 -29 53.67 -29 52 C-29.66 52 -30.32 52 -31 52 C-31.26 49.89 -31.26 49.89 -31.27 46.97 C-31.27 45.93 -31.27 44.89 -31.27 43.82 C-31.27 42.73 -31.26 41.63 -31.25 40.5 C-31.26 39.4 -31.27 38.31 -31.27 37.18 C-31.27 36.14 -31.27 35.1 -31.27 34.03 C-31.26 33.07 -31.26 32.1 -31.26 31.11 C-31.17 30.41 -31.09 29.72 -31 29 C-30.34 29 -29.68 29 -29 29 C-29 28.18 -29 27.35 -29 26.5 C-29 25.68 -29 24.85 -29 24 C-28.34 24 -27.68 24 -27 24 C-26.84 22.84 -26.67 21.69 -26.5 20.5 C-26.34 19.34 -26.17 18.19 -26 17 C-25.34 17 -24.68 17 -24 17 C-24 16.34 -24 15.68 -24 15 C-23.34 15 -22.68 15 -22 15 C-22 14.34 -22 13.68 -22 13 C-20.57 11.49 -20.57 11.49 -18.69 9.88 C-18.07 9.34 -17.46 8.8 -16.82 8.24 C-15 7 -15 7 -12 7 C-12 6.34 -12 5.68 -12 5 C-10.68 5 -9.36 5 -8 5 C-8 4.34 -8 3.68 -8 3 C-5.92 2.59 -3.86 2.49 -1.75 2.34 C-1.17 2.23 -0.6 2.12 0 2 C0 1.34 0 0.68 0 0 Z " fill="#FFA800" transform="translate(730,159)"/>
<path d="M0 0 C7.73 -1.42 16.48 -0.09 23.26 3.84 C25.47 7.71 26.83 10.81 26.11 15.27 C25.95 16.41 25.95 16.41 25.79 17.57 C25.68 18.34 25.56 19.11 25.45 19.9 C25.26 22.2 25.11 24.49 24.97 26.78 C24.86 28.22 24.72 29.65 24.54 31.08 C24.25 33.16 24.25 33.16 24.26 35.84 C25.25 35.51 26.24 35.18 27.26 34.84 C27.26 34.18 27.26 33.52 27.26 32.84 C36.74 28.28 49.86 28.1 59.89 31.22 C61 31.75 62.11 32.29 63.26 32.84 C63.26 33.5 63.26 34.16 63.26 34.84 C65.14 35.95 65.14 35.95 67.26 36.84 C67.92 37.17 68.58 37.5 69.26 37.84 C69.26 38.5 69.26 39.16 69.26 39.84 C69.92 39.84 70.58 39.84 71.26 39.84 C74.26 44.23 74.26 44.23 74.26 46.84 C74.92 46.84 75.58 46.84 76.26 46.84 C76.75 49.21 77.04 51.44 77.26 53.84 C77.35 54.77 77.44 55.69 77.53 56.64 C78.19 63.85 78.58 71.06 78.87 78.3 C79.01 80.98 79.18 83.63 79.43 86.3 C80.97 104.15 80.97 104.15 77.26 109.84 C69.5 114.06 60.38 113.45 52.08 111.2 C48.95 109.69 48.09 108.98 46.91 105.75 C45.97 99.96 46.62 94.2 47.2 88.4 C47.37 85.36 47.51 82.31 47.64 79.27 C47.74 77.37 47.87 75.47 48.04 73.57 C48.5 67.73 48.38 62.01 45.26 56.84 C44.27 56.84 43.28 56.84 42.26 56.84 C42.26 56.18 42.26 55.52 42.26 54.84 C39.98 54.52 39.98 54.52 37.26 54.59 C36.33 54.59 35.4 54.58 34.45 54.58 C33.73 54.66 33 54.75 32.26 54.84 C32.26 55.5 32.26 56.16 32.26 56.84 C31.27 56.84 30.28 56.84 29.26 56.84 C29.26 57.5 29.26 58.16 29.26 58.84 C28.6 58.84 27.94 58.84 27.26 58.84 C27.26 59.5 27.26 60.16 27.26 60.84 C26.6 60.84 25.94 60.84 25.26 60.84 C23.81 64.89 24.39 68.92 24.74 73.12 C27.02 101.51 27.02 101.51 23.26 109.84 C17.1 114.29 9.71 112.97 2.61 111.85 C-5.18 110.4 -5.18 110.4 -6.74 108.84 C-6.9 107.48 -6.99 106.11 -7.06 104.74 C-7.11 103.85 -7.15 102.97 -7.2 102.05 C-7.24 101.08 -7.28 100.1 -7.33 99.09 C-7.38 98.07 -7.43 97.04 -7.48 95.99 C-7.9 86.56 -8.16 77.12 -8.38 67.69 C-8.52 61.34 -8.72 54.99 -9.06 48.65 C-11.34 4.05 -11.34 4.05 0 0 Z " fill="#073467" transform="translate(346.739013671875,129.158447265625)"/>
<path d="M0 0 C2.51 -0.26 2.51 -0.26 5.98 -0.11 C7.85 -0.03 7.85 -0.03 9.76 0.04 C11.73 0.15 11.73 0.15 13.75 0.25 C15.05 0.3 16.35 0.36 17.7 0.41 C28.96 0.91 28.96 0.91 32 2 C33.05 3.93 33.05 3.93 33.75 6.31 C33.99 7.09 34.23 7.87 34.48 8.68 C35 11 35 11 35 15 C35.66 15 36.32 15 37 15 C37.41 17.34 37.51 19.66 37.66 22.03 C37.77 22.68 37.88 23.33 38 24 C38.66 24 39.32 24 40 24 C40 24.99 40 25.98 40 27 C40.66 27 41.32 27 42 27 C43 29.74 43 29.74 44 33.31 C45.05 37.05 45.84 39.76 48 43 C48.71 41.01 49.37 39.01 50 37 C50.66 37 51.32 37 52 37 C52 36.18 52 35.35 52 34.5 C52 33.68 52 32.85 52 32 C52.66 32 53.32 32 54 32 C54.4 30.18 54.4 30.18 54.5 28 C54.66 25.75 54.66 25.75 55 24 C55.66 24 56.32 24 57 24 C57 22.68 57 21.36 57 20 C57.66 20 58.32 20 59 20 C59.4 18.18 59.4 18.18 59.5 16 C59.66 13.75 59.66 13.75 60 12 C60.66 12 61.32 12 62 12 C62.38 10.34 62.7 8.67 63 7 C63.88 4.25 63.88 4.25 65 2 C70.1 0.3 75.41 0.28 80.75 -0.06 C81.94 -0.17 83.12 -0.28 84.35 -0.4 C90.14 -0.74 90.14 -0.74 93 0 C93.27 3.5 93.09 4.86 92 8 C91.86 8.82 91.71 9.65 91.56 10.5 C91.38 11 91.19 11.49 91 12 C90.34 12 89.68 12 89 12 C88.6 13.65 88.29 15.32 88 17 C87.06 20.81 87.06 20.81 86 24 C85.34 24 84.68 24 84 24 C84 24.82 84 25.65 84 26.5 C84 27.32 84 28.15 84 29 C83.34 29 82.68 29 82 29 C81.61 30.65 81.29 32.33 81 34 C80.06 37.31 80.06 37.31 79 40 C78.34 40 77.68 40 77 40 C76.6 41.65 76.29 43.32 76 45 C75.06 48.81 75.06 48.81 74 52 C73.34 52 72.68 52 72 52 C71.6 53.65 71.29 55.32 71 57 C70.06 60.81 70.06 60.81 69 64 C68.34 64 67.68 64 67 64 C67 64.82 67 65.65 67 66.5 C67 67.32 67 68.15 67 69 C66.34 69 65.68 69 65 69 C64.74 70.98 64.48 72.96 64.28 74.95 C63.96 77.32 63.38 79.05 62 81 C61.34 81 60.68 81 60 81 C59.84 82.16 59.67 83.31 59.5 84.5 C59.34 85.66 59.17 86.81 59 88 C58.34 88 57.68 88 57 88 C57 88.99 57 89.98 57 91 C56.34 91 55.68 91 55 91 C55 91.99 55 92.98 55 94 C54.34 94 53.68 94 53 94 C52.84 94.66 52.67 95.32 52.5 96 C52.34 96.66 52.17 97.32 52 98 C51.34 98 50.68 98 50 98 C50 98.66 50 99.32 50 100 C48.69 101.62 48.69 101.62 47 103 C46.01 103 45.02 103 44 103 C44 103.66 44 104.32 44 105 C34.79 109.52 23.98 109.86 14 108 C14 107.34 14 106.68 14 106 C11.95 105.6 11.95 105.6 9.5 105.5 C6.97 105.34 6.97 105.34 5 105 C5 104.34 5 103.68 5 103 C4.34 103 3.68 103 3 103 C3 102.34 3 101.68 3 101 C2.34 101 1.68 101 1 101 C1 100.01 1 99.02 1 98 C1.66 98 2.32 98 3 98 C3.56 96.27 3.56 96.27 4 94 C4.94 90.75 4.94 90.75 6 88 C6.66 88 7.32 88 8 88 C8 86.68 8 85.36 8 84 C8.66 84 9.32 84 10 84 C10 83.01 10 82.02 10 81 C12.84 81.31 15.29 82.1 18 83 C22.39 83.49 26.63 83.76 31 83 C32.74 79.58 32.74 79.58 32 76 C31.34 76 30.68 76 30 76 C30 74.33 30 72.67 30 71 C29.34 71 28.68 71 28 71 C27.15 69.39 27.15 69.39 26.38 67.25 C25.98 66.21 25.98 66.21 25.59 65.14 C25 63 25 63 25 59 C24.34 59 23.68 59 23 59 C21.46 56.02 20.94 53.54 20.5 50.19 C20.34 49.14 20.17 48.08 20 47 C19.34 47 18.68 47 18 47 C17.15 45.39 17.15 45.39 16.38 43.25 C16.11 42.55 15.85 41.86 15.59 41.14 C15 39 15 39 15 35 C14.34 35 13.68 35 13 35 C13 34.01 13 33.02 13 32 C12.34 32 11.68 32 11 32 C10.59 29.92 10.49 27.86 10.34 25.75 C10.23 25.17 10.12 24.59 10 24 C9.34 24 8.68 24 8 24 C8 22.68 8 21.36 8 20 C7.34 20 6.68 20 6 20 C5.59 17.92 5.49 15.86 5.34 13.75 C5.17 12.88 5.17 12.88 5 12 C4.34 12 3.68 12 3 12 C2.15 10.14 2.15 10.14 1.38 7.69 C1.11 6.89 0.85 6.09 0.59 5.26 C0 3 0 3 0 0 Z " fill="#073467" transform="translate(516,159)"/>
<path d="M0 0 C0 0.66 0 1.32 0 2 C1.85 3.05 1.85 3.05 4 4 C6.92 5.95 7.82 6.98 9.56 9.88 C9.98 10.55 10.39 11.23 10.82 11.93 C12.95 15.66 14.23 18.41 14.56 22.75 C14.67 24.17 14.81 25.59 15 27 C15.33 27 15.66 27 16 27 C16.1 28.49 16.13 29.99 16.13 31.48 C16.13 32.46 16.14 33.44 16.14 34.45 C16.14 36.05 16.14 36.05 16.13 37.68 C16.13 38.77 16.13 39.85 16.14 40.97 C16.14 43.27 16.13 45.58 16.13 47.88 C16.13 51.42 16.13 54.96 16.14 58.49 C16.14 60.72 16.13 62.95 16.13 65.18 C16.13 66.25 16.14 67.32 16.14 68.42 C16.13 69.89 16.13 69.89 16.13 71.39 C16.13 72.26 16.13 73.12 16.13 74.02 C16 76 16 76 15 77 C6.33 79.81 -3.08 81.8 -12.03 79.43 C-15.95 76.22 -16.24 73.84 -16.89 68.93 C-17.78 57.24 -17.26 45.45 -16.39 33.77 C-16.27 32.24 -16.27 32.24 -16.16 30.68 C-16.08 29.78 -16 28.87 -15.92 27.94 C-15.95 27.3 -15.97 26.66 -16 26 C-16.66 26 -17.32 26 -18 26 C-18 25.34 -18 24.68 -18 24 C-18.99 24 -19.98 24 -21 24 C-21 23.34 -21 22.68 -21 22 C-23.29 21.68 -23.29 21.68 -26 21.75 C-26.93 21.74 -27.86 21.74 -28.81 21.73 C-29.53 21.82 -30.26 21.91 -31 22 C-31 22.66 -31 23.32 -31 24 C-31.99 24 -32.98 24 -34 24 C-34 24.66 -34 25.32 -34 26 C-34.45 26.39 -34.91 26.78 -35.38 27.19 C-38.17 30.31 -38.99 34.1 -39.01 38.21 C-38.85 40.7 -38.62 43.17 -38.39 45.65 C-38.24 48.45 -38.11 51.25 -37.99 54.05 C-37.87 55.99 -37.7 57.93 -37.49 59.87 C-36.41 70.3 -36.41 70.3 -38.41 75.19 C-41.93 79.19 -47.26 80.05 -52.37 80.6 C-58.5 80.97 -63.77 80.53 -69 77 C-74.33 66.98 -73.12 54.27 -72.73 43.25 C-72.55 38.45 -72.64 33.7 -72.8 28.9 C-73.42 6.35 -73.42 6.35 -69 -2 C-61.34 -6.67 -52.02 -4.84 -43.63 -3.19 C-42.76 -2.8 -41.89 -2.41 -41 -2 C-40.25 0.62 -40.25 0.62 -40 3 C-37.89 3.08 -37.89 3.08 -36 2 C-36 1.34 -36 0.68 -36 0 C-25.55 -5.03 -10.45 -5.03 0 0 Z " fill="#073467" transform="translate(1335,162)"/>
<path d="M0 0 C1.06 -0 2.11 -0 3.2 -0 C4.3 -0 5.4 0 6.53 0.01 C7.63 0 8.73 0 9.87 -0 C11.45 -0 11.45 -0 13.06 0 C14.03 0 14.99 0 15.98 0 C18.46 0.13 18.46 0.13 21.46 1.13 C21.85 3.15 21.85 3.15 21.87 5.84 C21.88 6.84 21.89 7.84 21.91 8.87 C21.91 9.96 21.91 11.05 21.91 12.17 C21.92 13.28 21.93 14.38 21.95 15.53 C21.99 19.08 22.01 22.64 22.03 26.2 C22.05 29.76 22.08 33.31 22.12 36.87 C22.14 39.09 22.16 41.31 22.16 43.54 C22.17 44.53 22.18 45.53 22.19 46.56 C22.2 47.44 22.2 48.33 22.21 49.24 C22.29 49.87 22.38 50.49 22.46 51.13 C23.12 51.13 23.78 51.13 24.46 51.13 C24.46 51.79 24.46 52.45 24.46 53.13 C27.19 53.91 27.19 53.91 30.46 54.38 C31.58 54.57 32.69 54.76 33.84 54.96 C35.14 55.05 35.14 55.05 36.46 55.13 C36.46 54.47 36.46 53.81 36.46 53.13 C37.45 53.13 38.44 53.13 39.46 53.13 C39.46 52.47 39.46 51.81 39.46 51.13 C40.12 51.13 40.78 51.13 41.46 51.13 C43.91 45.88 43.79 40.63 43.84 34.96 C43.86 33.99 43.88 33.03 43.9 32.03 C43.95 28.96 43.99 25.89 44.03 22.82 C44.07 19.73 44.12 16.64 44.17 13.56 C44.2 11.64 44.23 9.72 44.25 7.8 C44.26 6.94 44.28 6.08 44.29 5.19 C44.31 4.05 44.31 4.05 44.32 2.88 C44.46 1.13 44.46 1.13 45.46 0.13 C53.66 -2.17 62.17 -3.46 70.55 -1.58 C73.79 0.33 74.71 1.78 75.76 5.37 C77.68 14.73 77.39 24.38 77.06 33.89 C76.89 38.68 76.98 43.44 77.13 48.23 C77.73 70.79 77.73 70.79 73.46 79.13 C66.08 83.81 57.05 82.06 48.89 80.44 C48.09 80.01 47.29 79.58 46.46 79.13 C46.23 76.01 46.23 76.01 46.46 73.13 C45.8 73.13 45.14 73.13 44.46 73.13 C44.46 73.79 44.46 74.45 44.46 75.13 C40.3 79.3 34.15 80.29 28.43 80.5 C26.75 80.49 25.08 80.48 23.4 80.45 C22.1 80.45 22.1 80.45 20.78 80.46 C18.67 80.44 16.57 80.3 14.46 80.13 C14.46 79.47 14.46 78.81 14.46 78.13 C12.64 77.74 12.64 77.74 10.46 77.63 C8.21 77.48 8.21 77.48 6.46 77.13 C6.46 76.47 6.46 75.81 6.46 75.13 C5.47 75.13 4.48 75.13 3.46 75.13 C3.46 74.47 3.46 73.81 3.46 73.13 C2.8 72.97 2.14 72.8 1.46 72.63 C0.8 72.47 0.14 72.3 -0.54 72.13 C-0.54 71.47 -0.54 70.81 -0.54 70.13 C-1.2 70.13 -1.86 70.13 -2.54 70.13 C-2.54 69.14 -2.54 68.15 -2.54 67.13 C-3.2 67.13 -3.86 67.13 -4.54 67.13 C-7.18 62.16 -7.65 58.82 -7.54 53.13 C-8.2 53.13 -8.86 53.13 -9.54 53.13 C-9.8 51.17 -9.8 51.17 -9.83 48.38 C-9.84 47.34 -9.85 46.3 -9.86 45.23 C-9.87 44.1 -9.87 42.96 -9.87 41.79 C-9.88 40.64 -9.88 39.49 -9.89 38.3 C-9.9 35.86 -9.91 33.41 -9.91 30.97 C-9.91 27.22 -9.95 23.46 -9.98 19.71 C-9.99 17.34 -9.99 14.97 -10 12.61 C-10.01 11.47 -10.02 10.34 -10.04 9.17 C-10.03 8.13 -10.03 7.09 -10.02 6.02 C-10.02 5.1 -10.03 4.18 -10.03 3.23 C-9.87 2.54 -9.7 1.84 -9.54 1.13 C-6.47 -0.18 -3.3 0 0 0 Z " fill="#073467" transform="translate(806.53515625,159.8671875)"/>
<path d="M0 0 C1.83 -0.26 1.83 -0.26 4.38 -0.27 C5.3 -0.27 6.22 -0.27 7.17 -0.27 C8.63 -0.26 8.63 -0.26 10.12 -0.25 C11.08 -0.26 12.03 -0.27 13.01 -0.27 C18.09 -0.26 22.24 0.04 27 2 C27.78 2.16 28.57 2.33 29.38 2.5 C29.91 2.66 30.45 2.83 31 3 C31 3.66 31 4.32 31 5 C32.32 5.38 33.66 5.7 35 6 C37.25 6.94 37.25 6.94 39 8 C39 8.66 39 9.32 39 10 C39.66 10 40.32 10 41 10 C41 10.66 41 11.32 41 12 C41.99 12.33 42.98 12.66 44 13 C44 13.66 44 14.32 44 15 C44.66 15 45.32 15 46 15 C47.44 17.12 47.44 17.12 49 20 C49.54 20.97 50.07 21.94 50.62 22.94 C52.04 26.09 52.47 28.59 53 32 C53.17 32.68 53.34 33.36 53.51 34.05 C54.6 38.52 55.39 42.85 54.18 47.36 C52.43 49.8 50.85 49.91 47.93 50.44 C40.62 51.07 33.32 50.74 26 50.44 C22.15 50.36 18.3 50.3 14.44 50.25 C12.04 50.21 9.64 50.14 7.23 50.06 C5.61 50 5.61 50 3.96 49.95 C3 49.91 2.04 49.88 1.05 49.84 C0.37 49.89 -0.3 49.94 -1 50 C-1 50.66 -1 51.32 -1 52 C-0.34 52 0.32 52 1 52 C1.66 52.99 2.32 53.98 3 55 C7.51 56.5 11.96 56.18 16.69 56.19 C17.68 56.2 18.66 56.21 19.68 56.22 C21.08 56.23 21.08 56.23 22.51 56.23 C23.8 56.24 23.8 56.24 25.12 56.24 C25.74 56.16 26.36 56.08 27 56 C27 55.34 27 54.68 27 54 C27.99 54 28.98 54 30 54 C30 53.34 30 52.68 30 52 C31.32 52 32.64 52 34 52 C34 52.66 34 53.32 34 54 C34.66 54 35.32 54 36 54 C36 54.66 36 55.32 36 56 C37.48 56.5 37.48 56.5 39 57 C39 57.66 39 58.32 39 59 C39.66 59 40.32 59 41 59 C42.62 60.38 42.62 60.38 44 62 C44 62.66 44 63.32 44 64 C44.66 64 45.32 64 46 64 C47.28 68.43 47.28 68.43 46 71 C45.34 71 44.68 71 44 71 C44 71.66 44 72.32 44 73 C42.33 73.33 40.67 73.67 39 74 C39 74.66 39 75.32 39 76 C38.01 76 37.02 76 36 76 C36 76.66 36 77.32 36 78 C33.4 78.41 30.82 78.51 28.19 78.66 C27.47 78.77 26.74 78.88 26 79 C26 79.66 26 80.32 26 81 C23.71 81.26 23.71 81.26 20.53 81.27 C19.4 81.27 18.28 81.27 17.11 81.27 C15.92 81.27 14.73 81.26 13.5 81.25 C11.71 81.26 11.71 81.26 9.89 81.27 C8.19 81.27 8.19 81.27 6.47 81.27 C5.42 81.26 4.37 81.26 3.29 81.26 C2.54 81.17 1.78 81.09 1 81 C1 80.34 1 79.68 1 79 C-1.28 78.6 -1.28 78.6 -4 78.5 C-6.81 78.34 -6.81 78.34 -9 78 C-9 77.34 -9 76.68 -9 76 C-9.99 76 -10.98 76 -12 76 C-12 75.34 -12 74.68 -12 74 C-12.83 73.83 -13.65 73.67 -14.5 73.5 C-15.33 73.33 -16.15 73.17 -17 73 C-17 72.34 -17 71.68 -17 71 C-17.66 71 -18.32 71 -19 71 C-19 70.34 -19 69.68 -19 69 C-19.66 69 -20.32 69 -21 69 C-21 68.34 -21 67.68 -21 67 C-21.99 66.67 -22.98 66.34 -24 66 C-24 65.34 -24 64.68 -24 64 C-24.66 64 -25.32 64 -26 64 C-26 63.01 -26 62.02 -26 61 C-26.66 61 -27.32 61 -28 61 C-30.64 56.02 -31.12 52.69 -31 47 C-31.66 47 -32.32 47 -33 47 C-33.94 39.14 -32.96 32.26 -30 25 C-29.65 23.82 -29.3 22.65 -28.94 21.44 C-28.63 20.63 -28.32 19.83 -28 19 C-27.34 19 -26.68 19 -26 19 C-26 18.34 -26 17.68 -26 17 C-25.34 17 -24.68 17 -24 17 C-23.78 16.1 -23.78 16.1 -23.56 15.19 C-22.9 12.62 -22.05 11.64 -20 10 C-19.34 10 -18.68 10 -18 10 C-18 9.34 -18 8.68 -18 8 C-16.33 7.67 -14.67 7.33 -13 7 C-13 6.34 -13 5.68 -13 5 C-12.01 5 -11.02 5 -10 5 C-10 4.34 -10 3.68 -10 3 C-7.4 2.59 -4.82 2.49 -2.19 2.34 C-1.47 2.23 -0.74 2.12 0 2 C0 1.34 0 0.68 0 0 Z M5 22 C5 22.66 5 23.32 5 24 C4.42 24.1 3.85 24.21 3.25 24.31 C0.01 25.3 -1.13 27.26 -3 30 C-3 30.66 -3 31.32 -3 32 C1.01 32.47 5.04 32.41 9.07 32.43 C11.12 32.44 13.17 32.49 15.22 32.54 C17.13 32.55 17.13 32.55 19.07 32.56 C20.85 32.58 20.85 32.58 22.66 32.6 C23.43 32.4 24.2 32.2 25 32 C24.24 28.58 22.79 26.12 20 24 C19.01 24 18.02 24 17 24 C17 23.34 17 22.68 17 22 C14.26 21.68 14.26 21.68 11 21.75 C9.89 21.74 8.77 21.74 7.62 21.73 C6.33 21.87 6.33 21.87 5 22 Z " fill="#073467" transform="translate(1068,159)"/>
<path d="M0 0 C1.14 -0.01 2.28 -0.02 3.45 -0.04 C5.1 -0.04 5.1 -0.04 6.79 -0.04 C7.8 -0.05 8.81 -0.05 9.85 -0.06 C13.11 0.21 15.76 1.07 18.81 2.19 C19.6 2.35 20.38 2.52 21.19 2.69 C21.72 2.85 22.26 3.02 22.81 3.19 C22.81 3.85 22.81 4.51 22.81 5.19 C24.13 5.57 25.47 5.89 26.81 6.19 C29.06 7.12 29.06 7.12 30.81 8.19 C30.81 8.85 30.81 9.51 30.81 10.19 C31.47 10.19 32.13 10.19 32.81 10.19 C33.48 11.85 34.15 13.52 34.81 15.19 C35.47 15.19 36.13 15.19 36.81 15.19 C41.25 24.6 40.97 34.84 40.95 45.07 C40.95 46.05 40.95 47.03 40.95 48.04 C40.95 50.09 40.95 52.14 40.94 54.19 C40.94 57.34 40.94 60.49 40.95 63.64 C40.95 65.64 40.95 67.64 40.95 69.63 C40.95 70.58 40.95 71.52 40.95 72.5 C40.95 73.79 40.95 73.79 40.94 75.12 C40.94 75.88 40.94 76.65 40.94 77.43 C40.81 79.19 40.81 79.19 39.81 80.19 C35.3 80.55 30.78 80.56 26.25 80.62 C24.97 80.67 23.68 80.72 22.36 80.76 C20.54 80.79 20.54 80.79 18.68 80.81 C17 80.85 17 80.85 15.28 80.88 C14.46 80.65 13.65 80.42 12.81 80.19 C12.57 77.15 12.57 77.15 12.81 74.19 C12.15 74.19 11.49 74.19 10.81 74.19 C10.77 74.83 10.73 75.47 10.69 76.12 C10.4 76.81 10.11 77.49 9.81 78.19 C7.97 78.61 7.97 78.61 5.75 78.81 C4.45 78.94 3.15 79.06 1.81 79.19 C1.81 79.85 1.81 80.51 1.81 81.19 C-1.31 81.69 -4.53 81.51 -7.69 81.5 C-8.57 81.52 -9.46 81.53 -10.38 81.55 C-16.31 81.55 -20.81 80.77 -26.19 78.19 C-26.19 77.53 -26.19 76.87 -26.19 76.19 C-27.18 76.19 -28.17 76.19 -29.19 76.19 C-30.88 74.81 -30.88 74.81 -32.19 73.19 C-32.19 72.53 -32.19 71.87 -32.19 71.19 C-32.85 71.19 -33.51 71.19 -34.19 71.19 C-34.19 70.2 -34.19 69.21 -34.19 68.19 C-34.85 68.19 -35.51 68.19 -36.19 68.19 C-37.66 64.54 -37.32 60.56 -37.31 56.69 C-37.32 55.38 -37.32 54.07 -37.32 52.72 C-37.12 47.51 -37.12 47.51 -36.19 45.19 C-35.53 45.19 -34.87 45.19 -34.19 45.19 C-34.19 44.2 -34.19 43.21 -34.19 42.19 C-33.53 42.19 -32.87 42.19 -32.19 42.19 C-32.19 41.53 -32.19 40.87 -32.19 40.19 C-30.85 39.85 -29.52 39.52 -28.19 39.19 C-28.19 38.53 -28.19 37.87 -28.19 37.19 C-27.2 37.19 -26.21 37.19 -25.19 37.19 C-25.19 36.53 -25.19 35.87 -25.19 35.19 C-22.14 34.26 -19.57 34.2 -16.38 34.25 C-14.8 34.22 -14.8 34.22 -13.19 34.19 C-13.19 33.53 -13.19 32.87 -13.19 32.19 C-10.97 31.93 -10.97 31.93 -7.9 31.91 C-6.82 31.89 -5.73 31.87 -4.61 31.85 C-2.28 31.83 0.04 31.81 2.37 31.8 C3.46 31.77 4.54 31.75 5.66 31.73 C6.67 31.72 7.68 31.71 8.72 31.7 C9.41 31.53 10.1 31.36 10.81 31.19 C10.9 29.1 10.9 29.1 9.81 27.19 C9.15 27.19 8.49 27.19 7.81 27.19 C7.81 26.53 7.81 25.87 7.81 25.19 C5.28 24.87 5.28 24.87 2.12 24.92 C0.95 24.92 -0.22 24.92 -1.43 24.91 C-2.67 24.92 -3.91 24.93 -5.19 24.94 C-6.43 24.93 -7.67 24.92 -8.95 24.91 C-10.12 24.92 -11.29 24.92 -12.5 24.92 C-13.59 24.92 -14.68 24.93 -15.8 24.93 C-16.59 25.01 -17.38 25.1 -18.19 25.19 C-18.19 25.85 -18.19 26.51 -18.19 27.19 C-19.18 27.19 -20.17 27.19 -21.19 27.19 C-21.19 27.85 -21.19 28.51 -21.19 29.19 C-23.62 29.62 -23.62 29.62 -26.19 29.19 C-26.88 26.69 -26.88 26.69 -27.19 24.19 C-27.85 24.19 -28.51 24.19 -29.19 24.19 C-29.19 22.87 -29.19 21.55 -29.19 20.19 C-29.85 20.19 -30.51 20.19 -31.19 20.19 C-31.52 17.85 -31.85 15.52 -32.19 13.19 C-32.85 13.19 -33.51 13.19 -34.19 13.19 C-34.88 10.94 -34.88 10.94 -34.19 8.19 C-31.91 6.84 -29.63 5.91 -27.16 4.98 C-26.51 4.72 -25.86 4.46 -25.19 4.19 C-25.19 3.86 -25.19 3.53 -25.19 3.19 C-23.22 2.81 -21.24 2.48 -19.25 2.19 C-4.66 0 -4.66 0 0 0 Z M-5.19 49.19 C-5.19 49.85 -5.19 50.51 -5.19 51.19 C-5.85 51.25 -6.51 51.31 -7.19 51.38 C-7.85 51.64 -8.51 51.91 -9.19 52.19 C-9.69 55.73 -9.69 55.73 -9.19 59.19 C-8.53 59.19 -7.87 59.19 -7.19 59.19 C-7.19 59.85 -7.19 60.51 -7.19 61.19 C-1.89 62.28 1.81 62.58 6.81 60.19 C10.02 57.85 10.74 56.41 11.95 52.58 C11.9 51.46 11.86 50.34 11.81 49.19 C8.66 48.53 6.52 48.43 3.38 48.62 C2.56 48.64 1.74 48.65 0.9 48.67 C-1.13 48.74 -3.16 48.95 -5.19 49.19 Z " fill="#073467" transform="translate(472.1875,158.8125)"/>
<path d="M0 0 C1.42 -0.02 1.42 -0.02 2.87 -0.04 C7.95 -0.05 12.04 0.24 16.81 2.19 C18.08 2.37 18.08 2.37 19.38 2.56 C22.55 3.38 24.35 5.06 26.81 7.19 C27.8 7.68 27.8 7.68 28.81 8.19 C28.81 8.85 28.81 9.51 28.81 10.19 C29.47 10.19 30.13 10.19 30.81 10.19 C34.57 13.03 36.18 15.35 36.94 19.94 C37.1 22.3 37.1 22.3 36.81 24.19 C34.38 25.12 34.38 25.12 31.81 25.19 C31.81 25.85 31.81 26.51 31.81 27.19 C25.7 30.19 25.7 30.19 21.81 30.19 C21.81 30.85 21.81 31.51 21.81 32.19 C18.6 34.33 17.55 34.84 13.81 34.19 C11.99 31.8 10.81 30.23 10.81 27.19 C6.47 25.31 2.64 24.92 -2.06 24.94 C-3.21 24.93 -4.37 24.93 -5.55 24.92 C-6.42 25.01 -7.29 25.1 -8.19 25.19 C-8.19 25.85 -8.19 26.51 -8.19 27.19 C-8.85 27.19 -9.51 27.19 -10.19 27.19 C-10.19 27.85 -10.19 28.51 -10.19 29.19 C-10.85 29.19 -11.51 29.19 -12.19 29.19 C-12.35 30.18 -12.52 31.17 -12.69 32.19 C-12.85 33.18 -13.02 34.17 -13.19 35.19 C-13.85 35.19 -14.51 35.19 -15.19 35.19 C-15.22 40.06 -14.55 45.51 -13.19 50.19 C-12.2 50.68 -12.2 50.68 -11.19 51.19 C-10.86 52.18 -10.53 53.17 -10.19 54.19 C-9.53 54.19 -8.87 54.19 -8.19 54.19 C-8.19 54.85 -8.19 55.51 -8.19 56.19 C-5.32 56.39 -2.56 56.46 0.31 56.44 C1.12 56.45 1.93 56.45 2.77 56.46 C4.79 56.45 6.8 56.33 8.81 56.19 C8.81 55.53 8.81 54.87 8.81 54.19 C9.47 54.19 10.13 54.19 10.81 54.19 C11.14 53.2 11.47 52.21 11.81 51.19 C12.47 51.19 13.13 51.19 13.81 51.19 C13.81 49.87 13.81 48.55 13.81 47.19 C15.13 47.19 16.45 47.19 17.81 47.19 C17.81 47.85 17.81 48.51 17.81 49.19 C19.55 49.75 19.55 49.75 21.81 50.19 C25.06 51.12 25.06 51.12 27.81 52.19 C27.81 52.85 27.81 53.51 27.81 54.19 C30.06 54.85 32.31 55.28 34.62 55.69 C35.35 56.18 36.07 56.68 36.81 57.19 C37.25 60.38 36.79 63.13 35.81 66.19 C33.38 69.25 33.38 69.25 30.81 71.19 C30.15 71.19 29.49 71.19 28.81 71.19 C28.81 71.85 28.81 72.51 28.81 73.19 C27.48 73.52 26.15 73.85 24.81 74.19 C24.81 74.85 24.81 75.51 24.81 76.19 C23.82 76.19 22.83 76.19 21.81 76.19 C21.81 76.85 21.81 77.51 21.81 78.19 C19.88 78.79 19.88 78.79 17.38 79.25 C14.3 79.64 14.3 79.64 11.81 81.19 C8.09 81.44 4.35 81.37 0.62 81.38 C-0.42 81.39 -1.46 81.4 -2.53 81.41 C-7.83 81.42 -12.23 81.28 -17.19 79.19 C-17.97 79.02 -18.75 78.86 -19.56 78.69 C-20.1 78.52 -20.63 78.36 -21.19 78.19 C-21.19 77.53 -21.19 76.87 -21.19 76.19 C-22.18 76.19 -23.17 76.19 -24.19 76.19 C-24.19 75.53 -24.19 74.87 -24.19 74.19 C-25.01 74.02 -25.84 73.86 -26.69 73.69 C-27.51 73.52 -28.34 73.36 -29.19 73.19 C-29.19 72.53 -29.19 71.87 -29.19 71.19 C-29.85 71.19 -30.51 71.19 -31.19 71.19 C-31.19 70.53 -31.19 69.87 -31.19 69.19 C-31.85 69.19 -32.51 69.19 -33.19 69.19 C-33.19 68.53 -33.19 67.87 -33.19 67.19 C-33.83 67.08 -34.47 66.98 -35.12 66.88 C-35.81 66.65 -36.49 66.42 -37.19 66.19 C-37.81 63.62 -37.81 63.62 -38.19 61.19 C-38.85 61.19 -39.51 61.19 -40.19 61.19 C-40.19 59.87 -40.19 58.55 -40.19 57.19 C-40.85 57.19 -41.51 57.19 -42.19 57.19 C-46.05 47.84 -45.77 37.81 -43.19 28.19 C-43.04 27.44 -42.89 26.68 -42.74 25.91 C-42.56 25.34 -42.38 24.77 -42.19 24.19 C-41.53 24.19 -40.87 24.19 -40.19 24.19 C-40.19 22.87 -40.19 21.55 -40.19 20.19 C-39.53 20.19 -38.87 20.19 -38.19 20.19 C-38.13 19.49 -38.06 18.78 -38 18.06 C-36.26 11.9 -29.25 8.56 -24.19 5.19 C-23.2 5.19 -22.21 5.19 -21.19 5.19 C-21.19 4.53 -21.19 3.87 -21.19 3.19 C-19.04 2.59 -19.04 2.59 -16.25 2.12 C-3.78 0 -3.78 0 0 0 Z " fill="#073467" transform="translate(996.1875,158.8125)"/>
<path d="M0 0 C1.07 -0 2.13 -0 3.23 -0 C4.91 0 4.91 0 6.63 0.01 C8.31 0 8.31 0 10.01 -0 C11.61 -0 11.61 -0 13.25 0 C14.23 0 15.22 0 16.23 0 C18.76 0.13 18.76 0.13 21.76 1.13 C22.07 2.91 22.07 2.91 21.98 5.2 C21.96 6.02 21.94 6.83 21.92 7.67 C21.89 8.52 21.86 9.38 21.82 10.26 C21.72 13.23 21.69 16.15 21.76 19.13 C22.42 18.8 23.08 18.47 23.76 18.13 C29.21 16.71 33.54 15.69 38.76 18.13 C41.54 24.58 41.24 32.25 39.8 39.01 C39.46 39.71 39.11 40.41 38.76 41.13 C35.3 41.56 33.54 41.43 30.26 40.7 C26.61 39.93 25.51 39.96 21.76 41.13 C20.3 46.08 20.41 51.03 20.57 56.13 C20.59 56.85 20.61 57.57 20.64 58.31 C20.8 62.61 20.99 66.9 21.76 71.13 C22.42 71.13 23.08 71.13 23.76 71.13 C24.09 71.79 24.42 72.45 24.76 73.13 C28.43 73.24 32.06 73.06 35.73 72.91 C36.73 72.98 37.73 73.06 38.76 73.13 C38.76 74.12 38.76 75.11 38.76 76.13 C39.42 76.13 40.08 76.13 40.76 76.13 C41.17 78.74 41.27 81.32 41.41 83.95 C41.53 84.67 41.64 85.39 41.76 86.13 C42.42 86.13 43.08 86.13 43.76 86.13 C45.36 88.76 46.03 91.07 45.76 94.13 C39.49 98.69 31.55 98.7 24.13 98.51 C23.13 98.51 22.12 98.51 21.09 98.5 C15.71 98.44 15.71 98.44 13.76 98.13 C13.76 97.47 13.76 96.81 13.76 96.13 C11.94 95.74 11.94 95.74 9.76 95.63 C7.51 95.48 7.51 95.48 5.76 95.13 C5.76 94.47 5.76 93.81 5.76 93.13 C4.77 93.13 3.78 93.13 2.76 93.13 C2.76 92.47 2.76 91.81 2.76 91.13 C1.27 90.64 1.27 90.64 -0.24 90.13 C-0.24 89.47 -0.24 88.81 -0.24 88.13 C-0.9 88.13 -1.56 88.13 -2.24 88.13 C-2.58 86.8 -2.91 85.47 -3.24 84.13 C-3.9 84.13 -4.56 84.13 -5.24 84.13 C-6.73 79.63 -6.17 74.99 -5.92 70.33 C-5.86 68.62 -5.8 66.9 -5.74 65.19 C-5.66 62.48 -5.55 59.79 -5.39 57.09 C-4.91 49.03 -4.91 49.03 -6.24 41.13 C-9.61 40.15 -12.09 40.63 -15.54 41.16 C-16.43 41.15 -17.32 41.14 -18.24 41.13 C-20.02 37.63 -19.41 34.01 -19.05 30.2 C-19.01 29.15 -18.96 28.11 -18.92 27.04 C-18.52 19.41 -18.52 19.41 -17.24 18.13 C-15.77 18.03 -14.28 18 -12.8 18.01 C-11.6 18 -11.6 18 -10.37 18 C-8.24 18.13 -8.24 18.13 -6.24 19.13 C-6.12 16.15 -6.11 13.24 -6.18 10.26 C-6.21 8.57 -6.24 6.89 -6.27 5.2 C-6.29 4.45 -6.31 3.69 -6.32 2.91 C-6.15 -0.96 -3.19 0 0 0 Z " fill="#073467" transform="translate(1374.2421875,141.8671875)"/>
<path d="M0 0 C3.01 0.03 3.01 0.03 5.54 0.91 C7.55 5.28 7.34 9.66 7.23 14.41 C7.22 16.31 7.22 16.31 7.21 18.25 C7 21.72 6.7 24.64 5.54 27.91 C-0.09 30.6 -4.54 29.18 -10.46 27.91 C-10.46 28.57 -10.46 29.23 -10.46 29.91 C-12.12 30.91 -13.79 31.91 -15.46 32.91 C-19.05 38.29 -18.6 44.24 -17.98 50.45 C-17.66 53.74 -17.52 57.02 -17.37 60.32 C-17.26 62.06 -17.1 63.8 -16.9 65.54 C-16.37 70.21 -15.84 74.9 -17.85 79.27 C-22.43 83.92 -29.81 84.34 -36.03 84.52 C-40.82 84.41 -44.48 83.59 -48.46 80.91 C-53.6 70.24 -51.29 56.26 -50.51 44.81 C-50.22 40.11 -50.1 35.42 -49.96 30.72 C-49.74 23.87 -49.45 17.02 -49.03 10.18 C-48.99 9.45 -48.95 8.73 -48.9 7.98 C-48.58 3.03 -48.58 3.03 -47.46 1.91 C-45.47 1.81 -43.48 1.78 -41.49 1.77 C-40.28 1.77 -39.07 1.77 -37.82 1.77 C-36.55 1.77 -35.27 1.78 -33.96 1.78 C-32.04 1.78 -32.04 1.78 -30.09 1.77 C-28.28 1.77 -28.28 1.77 -26.43 1.77 C-25.31 1.77 -24.19 1.78 -23.03 1.78 C-20.46 1.91 -20.46 1.91 -19.46 2.91 C-19.48 3.75 -19.5 4.6 -19.52 5.47 C-19.5 6.27 -19.48 7.08 -19.46 7.91 C-18.8 7.91 -18.14 7.91 -17.46 7.91 C-17.46 7.25 -17.46 6.59 -17.46 5.91 C-15.14 3.59 -14.04 3.44 -10.89 2.84 C-6.9 2.07 -4.12 0.46 0 0 Z " fill="#073467" transform="translate(943.45703125,158.09375)"/>
<path d="M0 0 C3.64 -0.03 5.51 0.6 8.34 2.9 C18.44 14.49 24.02 27 26.61 42.14 C26.82 44.01 26.82 44.01 28 45 C28.72 49.85 28.49 53.16 26 57.44 C17.6 64.61 3.41 62.67 -6.96 62.24 C-16.69 61.47 -28 58.11 -35 51 C-35.79 48.88 -35.79 48.88 -36 47 C-35 46 -35 46 -32.88 45.88 C-27.17 45.92 -21.47 46.08 -15.77 46.41 C-12.01 46.62 -8.26 46.76 -4.5 46.9 C-2.38 46.99 -0.26 47.1 1.87 47.23 C5.6 47.3 5.6 47.3 9 46 C13.12 35.55 4.95 19.17 0.84 9.28 C-0.22 6.62 -0.99 4.36 -1.04 1.48 C-0.7 0.99 -0.35 0.5 0 0 Z " fill="#FFA800" transform="translate(1204,39)"/>
<path d="M0 0 C3.06 -0.27 3.06 -0.27 7 -0.25 C8.3 -0.26 9.6 -0.26 10.94 -0.27 C11.95 -0.18 12.96 -0.09 14 0 C14 0.66 14 1.32 14 2 C16.39 3.11 16.39 3.11 19 4 C22.24 5.62 22.73 7.64 24 11 C25 17.86 24.26 23.32 20.46 29.18 C18.13 32.09 16.64 33.02 13 34 C8.65 34.31 4.34 34.5 0 34 C0 33.34 0 32.68 0 32 C-0.83 31.84 -1.65 31.67 -2.5 31.5 C-3.33 31.34 -4.15 31.17 -5 31 C-5 30.34 -5 29.68 -5 29 C-5.66 29 -6.32 29 -7 29 C-11.31 23.29 -11.93 18.05 -11 11 C-10.1 8.67 -10.1 8.67 -9 7 C-8.34 7 -7.68 7 -7 7 C-7 6.34 -7 5.68 -7 5 C-4.44 2.7 -3.52 2 0 2 C0 1.34 0 0.68 0 0 Z " fill="#073467" transform="translate(1434,206)"/>
<path d="M0 0 C7.14 -0.48 15.77 1.71 21.21 6.45 C23.34 11.08 22.72 15.32 21.27 20.02 C17.57 25.11 11.98 26.82 5.94 28.04 C-5.14 29.45 -5.14 29.45 -8.73 26.77 C-10.76 19.37 -8.16 11.09 -5.27 4.23 C-3.63 1.62 -2.93 0.8 0 0 Z " fill="#FFA800" transform="translate(65.7265625,148.234375)"/>
<path d="M0 0 C0.33 0 0.66 0 1 0 C1.1 2.3 1.14 4.58 1.13 6.88 C1.13 7.62 1.13 8.35 1.13 9.1 C1.14 11.54 1.14 13.97 1.13 16.41 C1.13 18.09 1.13 19.77 1.14 21.45 C1.14 24.98 1.14 28.51 1.13 32.04 C1.12 36.58 1.13 41.12 1.13 45.66 C1.14 49.14 1.14 52.61 1.13 56.09 C1.13 57.76 1.13 59.44 1.14 61.11 C1.14 63.45 1.13 65.78 1.13 68.12 C1.13 68.82 1.13 69.52 1.14 70.24 C1.13 71.83 1.07 73.41 1 75 C0.67 75 0.34 75 0 75 C-0.1 72.7 -0.14 70.42 -0.13 68.12 C-0.13 67.38 -0.13 66.65 -0.13 65.9 C-0.14 63.46 -0.14 61.03 -0.13 58.59 C-0.13 56.91 -0.13 55.23 -0.14 53.55 C-0.14 50.02 -0.14 46.49 -0.13 42.96 C-0.12 38.42 -0.13 33.88 -0.13 29.34 C-0.14 25.86 -0.14 22.39 -0.13 18.91 C-0.13 17.24 -0.13 15.56 -0.14 13.89 C-0.14 11.55 -0.13 9.22 -0.13 6.88 C-0.13 5.83 -0.13 5.83 -0.14 4.76 C-0.13 3.17 -0.07 1.59 0 0 Z " fill="#073467" transform="translate(881,162)"/>
<path d="M0 0 C0.33 0 0.66 0 1 0 C1.1 1.53 1.13 3.06 1.13 4.59 C1.13 5.54 1.14 6.49 1.14 7.46 C1.13 8.47 1.13 9.47 1.12 10.5 C1.13 11.5 1.13 12.5 1.14 13.54 C1.14 14.48 1.13 15.43 1.13 16.41 C1.13 17.29 1.13 18.17 1.13 19.07 C1.09 19.71 1.04 20.34 1 21 C0.67 21 0.34 21 0 21 C-0.1 19.47 -0.13 17.94 -0.13 16.41 C-0.13 15.46 -0.14 14.51 -0.14 13.54 C-0.13 12.53 -0.13 11.53 -0.12 10.5 C-0.13 9.5 -0.13 8.5 -0.14 7.46 C-0.14 6.52 -0.13 5.57 -0.13 4.59 C-0.13 3.71 -0.13 2.83 -0.13 1.93 C-0.09 1.29 -0.04 0.66 0 0 Z " fill="#073467" transform="translate(1247,178)"/>
<path d="M0 0 C0.33 0 0.66 0 1 0 C1.1 3.01 1.14 5.99 1.12 9 C1.13 9.86 1.13 10.72 1.14 11.6 C1.13 13.73 1.07 15.87 1 18 C0.67 18 0.34 18 0 18 C-0.1 14.99 -0.14 12.01 -0.12 9 C-0.13 8.14 -0.13 7.28 -0.14 6.4 C-0.13 4.27 -0.07 2.13 0 0 Z " fill="#073467" transform="translate(1414,162)"/>
<path d="" fill="#073467" transform="translate(0,0)"/>
</svg>
