<?xml version="1.0" encoding="UTF-8"?>
<svg version="1.1" xmlns="http://www.w3.org/2000/svg" width="1458" height="268">
<path d="M0 0 C16.83068525 13.24420218 27.03880567 30.08018932 31.5234375 50.875 C31.94418579 54.49439157 31.97550075 58.07016436 31.9296875 61.70703125 C31.92517578 62.39539063 31.92066406 63.08375 31.91601562 63.79296875 C31.90435086 65.4726946 31.88642021 67.152375 31.8671875 68.83203125 C33.0634375 68.54328125 34.2596875 68.25453125 35.4921875 67.95703125 C43.85862982 66.10076829 52.29054792 64.76152805 60.8671875 64.83203125 C60.61811646 66.18675537 60.61811646 66.18675537 60.36401367 67.56884766 C49.57330284 126.818571 48.71625868 184.50047072 59.34228516 243.87304688 C59.87146261 246.85613093 60.37399888 249.84280667 60.8671875 252.83203125 C59.32799198 252.66323059 57.78882633 252.49415573 56.24975586 252.32421875 C54.73113596 252.15666554 53.2124112 251.99006105 51.69360352 251.82421875 C46.82806168 251.28808087 41.96662824 250.72628436 37.10783386 250.13183594 C-13.14011374 243.98848055 -62.70209902 243.52521077 -113.1328125 247.83203125 C-111.84840679 239.03465068 -110.31888591 230.31710993 -108.56640625 221.6015625 C-108.32745132 220.40391769 -108.0884964 219.20627289 -107.84230042 217.97233582 C-107.34200268 215.46882258 -106.84027399 212.96559491 -106.3371582 210.46264648 C-105.564829 206.61722899 -104.79874601 202.77060173 -104.03320312 198.92382812 C-103.5446413 196.48299873 -103.05572211 194.04224084 -102.56640625 191.6015625 C-102.22264198 189.87363213 -102.22264198 189.87363213 -101.87193298 188.11079407 C-101.65823563 187.05176376 -101.44453827 185.99273346 -101.22436523 184.90161133 C-100.94362404 183.50148552 -100.94362404 183.50148552 -100.6572113 182.07307434 C-100.1328125 179.83203125 -100.1328125 179.83203125 -99.1328125 177.83203125 C-94.8428125 177.83203125 -90.5528125 177.83203125 -86.1328125 177.83203125 C-85.59398438 179.26417969 -85.05515625 180.69632813 -84.5 182.171875 C-80.88105652 190.69186784 -80.88105652 190.69186784 -75.1328125 197.83203125 C-68.18881262 200.54055807 -60.40021293 199.7206217 -53.1328125 198.83203125 C-53.50156494 198.21682617 -53.87031738 197.60162109 -54.25024414 196.96777344 C-55.91150742 194.1799849 -57.55352279 191.38132856 -59.1953125 188.58203125 C-60.06639648 187.12990234 -60.06639648 187.12990234 -60.95507812 185.6484375 C-61.77202148 184.24658203 -61.77202148 184.24658203 -62.60546875 182.81640625 C-63.11343994 181.95756836 -63.62141113 181.09873047 -64.14477539 180.21386719 C-65.1328125 177.83203125 -65.1328125 177.83203125 -64.92041016 175.61157227 C-63.74760786 172.96167892 -61.98241358 172.33548652 -59.4453125 171.01953125 C-51.49398763 166.45971299 -47.66849424 161.39608182 -44.828125 152.66015625 C-42.80119029 144.41577014 -43.91837701 137.22046346 -48.1328125 129.83203125 C-54.58072524 122.77003159 -63.92204787 120.26352864 -73.22322083 119.7069397 C-75.52504253 119.62271049 -77.82605517 119.564031 -80.12890625 119.515625 C-81.37922386 119.48445335 -81.37922386 119.48445335 -82.65480042 119.45265198 C-85.29322811 119.38775269 -87.93174741 119.32855147 -90.5703125 119.26953125 C-92.36914974 119.22628919 -94.16797804 119.18267317 -95.96679688 119.13867188 C-100.3553771 119.03213326 -104.7440486 118.9307015 -109.1328125 118.83203125 C-109.22798157 119.36911713 -109.32315063 119.906203 -109.42120361 120.45956421 C-113.7077309 144.46270921 -118.5983736 168.3490672 -123.42724609 192.24755859 C-124.65417389 198.3205673 -125.87552021 204.39468467 -127.09556198 210.46907997 C-128.03999339 215.16711118 -128.98788853 219.86443838 -129.93680573 224.5615654 C-130.38937243 226.80452343 -130.84070771 229.04773028 -131.29079437 231.29118729 C-131.91387573 234.39490182 -132.54174312 237.49760956 -133.17089844 240.60009766 C-133.35581345 241.52656097 -133.54072845 242.45302429 -133.73124695 243.40756226 C-135.01862705 249.7178458 -135.01862705 249.7178458 -136.1328125 250.83203125 C-138.98809857 251.23241425 -141.83017737 251.58385395 -144.6953125 251.89453125 C-145.90477539 252.03084961 -145.90477539 252.03084961 -147.13867188 252.16992188 C-149.13628627 252.39450574 -151.1344981 252.61376361 -153.1328125 252.83203125 C-152.39868132 245.35874086 -151.2325521 237.97289923 -150.03430176 230.56280518 C-148.01521083 218.02037518 -146.13755078 205.50256309 -145.1328125 192.83203125 C-144.96652344 190.85976563 -144.96652344 190.85976563 -144.796875 188.84765625 C-141.88492003 149.77230541 -144.27859302 109.1136219 -152.78320312 70.83447266 C-153.1328125 68.83203125 -153.1328125 68.83203125 -153.1328125 64.83203125 C-144.07146405 65.47324399 -135.12429245 66.56683667 -126.1328125 67.83203125 C-126.05804688 66.59710938 -125.98328125 65.3621875 -125.90625 64.08984375 C-124.12564979 39.53270452 -115.93776645 20.80514552 -97.90625 3.72265625 C-70.34171798 -20.06212388 -29.42877533 -20.36529964 0 0 Z M-102.3828125 18.51953125 C-112.4499168 31.14336045 -118.53380858 46.10744693 -118.23046875 62.30859375 C-118.22341919 63.03731689 -118.21636963 63.76604004 -118.20910645 64.5168457 C-118.19093768 66.28866358 -118.16292448 68.0603761 -118.1328125 69.83203125 C-70.0956977 74.2839452 -23.16832138 74.46180239 24.8671875 69.83203125 C24.90981472 67.32403498 24.94057991 64.81678207 24.96484375 62.30859375 C24.97793579 61.60935791 24.99102783 60.91012207 25.0045166 60.18969727 C25.13416729 42.23566952 16.35715273 25.96853078 4.24609375 13.23046875 C-9.23748773 -0.4440983 -27.08627523 -7.34169905 -46.0703125 -7.48046875 C-68.53607366 -7.49796999 -87.51016354 1.67580833 -102.3828125 18.51953125 Z M-27.1328125 128.83203125 C-32.21410596 135.36686779 -34.11014544 141.56542345 -33.1328125 149.83203125 C-31.35819009 155.31985817 -28.8430385 158.47147927 -24.1328125 161.83203125 C-17.07256026 165.40368826 -9.52883288 167.75352048 -1.9453125 169.9375 C0.49697156 170.71428201 2.62377849 171.60786335 4.8671875 172.83203125 C4.8671875 175.47203125 4.8671875 178.11203125 4.8671875 180.83203125 C-9.24176567 185.09133787 -22.11423715 182.17493554 -35.1328125 175.83203125 C-36.47119983 178.287733 -37.80367482 180.74633041 -39.1328125 183.20703125 C-39.514375 183.90570313 -39.8959375 184.604375 -40.2890625 185.32421875 C-42.39005994 188.87492585 -42.39005994 188.87492585 -43.1328125 192.83203125 C-27.43147759 200.39407123 -11.27632455 203.27346679 5.8671875 198.83203125 C15.42314929 195.3388358 22.6797656 190.07406581 27.3671875 180.89453125 C28.48235673 174.06411973 29.01170318 167.71456963 24.8671875 161.83203125 C20.13546703 156.88919062 15.43216301 154.53765703 8.9296875 152.64453125 C7.39928791 152.17333952 5.86933576 151.70069196 4.33984375 151.2265625 C3.59879395 151.00049316 2.85774414 150.77442383 2.09423828 150.54150391 C-2.06326457 149.21704619 -6.22685393 147.78501053 -10.1328125 145.83203125 C-10.1328125 143.19203125 -10.1328125 140.55203125 -10.1328125 137.83203125 C1.92730876 133.19352307 14.1474984 134.77647909 25.8671875 139.83203125 C27.06703547 137.5669816 28.25213519 135.29613237 29.4296875 133.01953125 C29.77193359 132.37693359 30.11417969 131.73433594 30.46679688 131.07226562 C31.3436898 129.3627673 32.11234367 127.59881831 32.8671875 125.83203125 C32.3721875 124.34703125 32.3721875 124.34703125 31.8671875 122.83203125 C29.48521263 121.61295022 29.48521263 121.61295022 26.6171875 120.70703125 C25.66328125 120.37445313 24.709375 120.041875 23.7265625 119.69921875 C7.14312129 114.66981445 -14.558252 115.86451574 -27.1328125 128.83203125 Z " fill="#FFA800" transform="translate(153.1328125,14.16796875)"/>
<path d="M0 0 C49 0 49 0 51 1 C53.8754532 1.39315079 56.74111846 1.74649025 59.625 2.0625 C60.42679687 2.15337891 61.22859375 2.24425781 62.0546875 2.33789062 C64.03607868 2.56197653 66.01799305 2.7814275 68 3 C68 3.66 68 4.32 68 5 C69.32 5 70.64 5 72 5 C72 5.66 72 6.32 72 7 C73.65 7.33 75.3 7.66 77 8 C77 8.66 77 9.32 77 10 C77.99 10 78.98 10 80 10 C84.93026792 14.31398443 87.76976643 18.90402824 90 25 C90.34289062 25.90492188 90.68578125 26.80984375 91.0390625 27.7421875 C93.80765881 37.12840426 92.1125403 46.92175746 89 56 C88.34 56 87.68 56 87 56 C87 56.99 87 57.98 87 59 C86.34 59 85.68 59 85 59 C85 59.66 85 60.32 85 61 C84.34 61 83.68 61 83 61 C82.67 61.99 82.34 62.98 82 64 C81.34 64 80.68 64 80 64 C80 64.66 80 65.32 80 66 C79.34 66 78.68 66 78 66 C78 66.66 78 67.32 78 68 C76.35 68.33 74.7 68.66 73 69 C73.66 70.65 74.32 72.3 75 74 C75.66 74 76.32 74 77 74 C77.33 75.65 77.66 77.3 78 79 C78.66 79 79.32 79 80 79 C80 79.66 80 80.32 80 81 C80.66 81 81.32 81 82 81 C82.33 82.65 82.66 84.3 83 86 C83.66 86 84.32 86 85 86 C85 86.99 85 87.98 85 89 C85.66 89 86.32 89 87 89 C90 93.38461538 90 93.38461538 90 96 C90.66 96 91.32 96 92 96 C92 96.66 92 97.32 92 98 C92.66 98 93.32 98 94 98 C93.67 99.65 93.34 101.3 93 103 C88.62155592 102.88185874 84.24334071 102.75761831 79.86523438 102.62768555 C78.37537359 102.58433411 76.88546305 102.54265916 75.39550781 102.50268555 C73.25570673 102.44498785 71.11615615 102.38129245 68.9765625 102.31640625 C67.68830566 102.27974854 66.40004883 102.24309082 65.07275391 102.20532227 C62 102 62 102 60 101 C60 100.01 60 99.02 60 98 C59.34 98 58.68 98 58 98 C55 93.61538462 55 93.61538462 55 91 C54.34 91 53.68 91 53 91 C53 90.01 53 89.02 53 88 C52.01 87.505 52.01 87.505 51 87 C49.91409221 85.74529825 48.87757609 84.44723803 47.875 83.125 C47.33617187 82.42632812 46.79734375 81.72765625 46.2421875 81.0078125 C45 79 45 79 45 76 C40.38 76 35.76 76 31 76 C31 84.58 31 93.16 31 102 C20.77 102 10.54 102 0 102 C0 68.34 0 34.68 0 0 Z M31 25 C31 33.91 31 42.82 31 52 C33.495625 52.020625 35.99125 52.04125 38.5625 52.0625 C39.33408447 52.071604 40.10566895 52.08070801 40.90063477 52.09008789 C45.37267824 52.10775494 49.58813848 51.7362765 54 51 C54 50.34 54 49.68 54 49 C54.99 49 55.98 49 57 49 C57 48.34 57 47.68 57 47 C57.99 46.67 58.98 46.34 60 46 C60.08097324 43.72975032 60.13917704 41.45867925 60.1875 39.1875 C60.22230469 37.92292969 60.25710938 36.65835938 60.29296875 35.35546875 C60.29074498 32.06024327 60.29074498 32.06024327 58.61328125 30.05078125 C57.04157384 28.81807581 57.04157384 28.81807581 55 29 C55 28.34 55 27.68 55 27 C50.15635354 24.4528236 45.50436055 24.77270916 40.1875 24.875 C37.155625 24.91625 34.12375 24.9575 31 25 Z " fill="#073467" transform="translate(238,137)"/>
<path d="M0 0 C0.73511307 0.00359528 1.47022614 0.00719055 2.22761536 0.01089478 C2.99829346 0.01074875 3.76897156 0.01060272 4.56300354 0.01045227 C7.12237823 0.01115157 9.68168104 0.01894471 12.24104309 0.02676392 C14.01081299 0.02862804 15.7805834 0.03005197 17.550354 0.03105164 C22.2176505 0.03487728 26.88491607 0.04470796 31.55220032 0.05575562 C36.31110719 0.06596873 41.07001905 0.07054904 45.82893372 0.07559204 C55.17335056 0.0863302 64.5177363 0.10392737 73.86213684 0.12442017 C73.86213684 8.37442017 73.86213684 16.62442017 73.86213684 25.12442017 C57.36213684 25.12442017 40.86213684 25.12442017 23.86213684 25.12442017 C24.19213684 25.78442017 24.52213684 26.44442017 24.86213684 27.12442017 C24.86213684 30.75442017 24.86213684 34.38442017 24.86213684 38.12442017 C38.72213684 38.45442017 52.58213684 38.78442017 66.86213684 39.12442017 C66.86213684 46.71442017 66.86213684 54.30442017 66.86213684 62.12442017 C53.00213684 62.45442017 39.14213684 62.78442017 24.86213684 63.12442017 C24.86213684 67.41442017 24.86213684 71.70442017 24.86213684 76.12442017 C24.53213684 76.78442017 24.20213684 77.44442017 23.86213684 78.12442017 C40.69213684 78.12442017 57.52213684 78.12442017 74.86213684 78.12442017 C74.86213684 86.04442017 74.86213684 93.96442017 74.86213684 102.12442017 C48.13213684 102.12442017 21.40213684 102.12442017 -6.13786316 102.12442017 C-6.17797197 76.95837058 -6.17797197 76.95837058 -6.18669128 66.27090454 C-6.19268031 58.96450072 -6.19978218 51.65810936 -6.21330261 44.35171509 C-6.22412953 38.4643687 -6.23013957 32.57703567 -6.2327404 26.6896801 C-6.23459501 24.4380974 -6.23821629 22.18651547 -6.24359322 19.93493843 C-6.25080105 16.7930859 -6.25185421 13.65128934 -6.25138855 10.50942993 C-6.25498383 9.56860062 -6.2585791 8.6277713 -6.26228333 7.65843201 C-6.24993606 0.01289845 -6.24993606 0.01289845 0 0 Z " fill="#073467" transform="translate(1179.1378631591797,136.87557983398438)"/>
<path d="M0 0 C3.28213782 0.00848975 6.56251581 -0.02033838 9.84448242 -0.05200195 C24.31654719 -0.1010837 37.97739867 1.37825389 52.1159668 4.44604492 C52.83936249 4.60207184 53.56275818 4.75809875 54.30807495 4.91885376 C58.56764844 5.85849308 62.78148235 6.92949486 66.9909668 8.07104492 C68.23982666 8.406604 69.48868652 8.74216309 70.77539062 9.08789062 C87.18382556 13.65821014 102.67291142 20.33739648 118.1159668 27.44604492 C118.1159668 28.10604492 118.1159668 28.76604492 118.1159668 29.44604492 C118.95772461 29.68581055 119.79948242 29.92557617 120.66674805 30.17260742 C124.59876332 31.62429143 127.8106461 33.53971486 131.3034668 35.82104492 C132.22675781 36.40112305 132.22675781 36.40112305 133.16870117 36.99291992 C136.45243779 39.1132959 139.13682823 41.03148717 141.1159668 44.44604492 C140.96968638 46.85967188 140.26794614 48.18678605 139.0534668 50.25854492 C135.89361396 52.19522892 132.58948409 51.15140685 129.1159668 50.44604492 C126.26183965 49.5755932 123.51187872 48.48743853 120.7409668 47.38354492 C84.33756624 33.50483943 47.06205328 26.22481837 8.1159668 26.19604492 C6.87274155 26.19503281 6.87274155 26.19503281 5.60440063 26.19400024 C-43.8337646 26.25736353 -90.05888143 38.73327783 -134.8894043 58.94165039 C-135.90212402 59.39685059 -136.91484375 59.85205078 -137.95825195 60.32104492 C-138.86148193 60.7309668 -139.76471191 61.14088867 -140.6953125 61.56323242 C-142.8840332 62.44604492 -142.8840332 62.44604492 -144.8840332 62.44604492 C-144.8840332 63.10604492 -144.8840332 63.76604492 -144.8840332 64.44604492 C-154.29405598 69.03830005 -154.29405598 69.03830005 -158.8840332 68.44604492 C-159.37258282 63.0872663 -159.37258282 63.0872663 -157.2590332 60.31323242 C-154.49082342 57.99121435 -151.72528113 55.677979 -148.8840332 53.44604492 C-148.29460938 52.97859863 -147.70518555 52.51115234 -147.09790039 52.02954102 C-133.69297936 41.47917805 -119.68657829 32.52370433 -104.30981445 25.13745117 C-100.98538575 23.56230556 -100.98538575 23.56230556 -98.37231445 21.89916992 C-95.29513724 20.10213708 -92.09284979 18.8564278 -88.7590332 17.63354492 C-87.71622192 17.24888062 -87.71622192 17.24888062 -86.65234375 16.85644531 C-74.72047703 12.51578064 -62.66406795 8.74820913 -50.3215332 5.75854492 C-49.54463135 5.56832764 -48.76772949 5.37811035 -47.96728516 5.18212891 C-45.28118363 4.55494374 -42.58750066 3.99383742 -39.8840332 3.44604492 C-38.63855713 3.183479 -37.39308105 2.92091309 -36.10986328 2.65039062 C-24.08464882 0.28009063 -12.23207976 -0.04801868 0 0 Z " fill="#FFA800" transform="translate(1061.884033203125,25.553955078125)"/>
<path d="M0 0 C5.94 0 11.88 0 18 0 C18 0.33 18 0.66 18 1 C21.3 1.33 24.6 1.66 28 2 C28 2.66 28 3.32 28 4 C31.63 4.33 35.26 4.66 39 5 C39 5.66 39 6.32 39 7 C39.598125 7.144375 40.19625 7.28875 40.8125 7.4375 C42.56150404 7.8872439 44.28677023 8.42892341 46 9 C46.46192125 13.92715996 44.8275283 17.50732625 43 22 C42.34 22 41.68 22 41 22 C41 23.65 41 25.3 41 27 C40.34 27 39.68 27 39 27 C39 28.32 39 29.64 39 31 C33.375 32.125 33.375 32.125 30 31 C30 30.34 30 29.68 30 29 C29.278125 29.04125 28.55625 29.0825 27.8125 29.125 C25 29 25 29 22.66918945 28.00439453 C19.73637683 26.90080072 17.60184317 26.76981181 14.48046875 26.8046875 C13.45888672 26.81113281 12.43730469 26.81757813 11.38476562 26.82421875 C10.32966797 26.84097656 9.27457031 26.85773438 8.1875 26.875 C7.11306641 26.88402344 6.03863281 26.89304688 4.93164062 26.90234375 C2.28753146 26.92584694 -0.35611872 26.95870425 -3 27 C-3 27.66 -3 28.32 -3 29 C-3.66 29 -4.32 29 -5 29 C-5 31.31 -5 33.62 -5 36 C-1.09810163 37.70800079 2.70397571 38.66031896 6.875 39.5 C14.52675719 41.08146965 14.52675719 41.08146965 18 42.125 C20.98976206 42.99701393 23.92112539 43.54943298 27 44 C27 44.66 27 45.32 27 46 C28.051875 46.185625 28.051875 46.185625 29.125 46.375 C32.17656387 47.03838345 35.05340938 47.97211955 38 49 C38 49.66 38 50.32 38 51 C38.99 51 39.98 51 41 51 C42.6875 52.375 42.6875 52.375 44 54 C44 54.66 44 55.32 44 56 C44.66 56 45.32 56 46 56 C46 56.66 46 57.32 46 58 C46.66 58 47.32 58 48 58 C49.1577506 61.47325181 49.06866652 64.36067448 49 68 C49.66 68 50.32 68 51 68 C51.38614349 74.8218683 50.00865708 80.49577707 48 87 C47.34 87 46.68 87 46 87 C46 87.99 46 88.98 46 90 C45.34 90 44.68 90 44 90 C43.505 91.485 43.505 91.485 43 93 C42.34 93 41.68 93 41 93 C41 93.66 41 94.32 41 95 C40.34 95 39.68 95 39 95 C39 95.66 39 96.32 39 97 C37.68 97.33 36.36 97.66 35 98 C35 98.66 35 99.32 35 100 C34.01 100 33.02 100 32 100 C32 100.66 32 101.32 32 102 C27.545 102.495 27.545 102.495 23 103 C23 103.66 23 104.32 23 105 C18.05 105.495 18.05 105.495 13 106 C13 106.33 13 106.66 13 107 C8.05 107 3.1 107 -2 107 C-2 106.67 -2 106.34 -2 106 C-3.06927734 105.92652344 -3.06927734 105.92652344 -4.16015625 105.8515625 C-9.72819242 105.41691095 -14.68805498 104.69982241 -20 103 C-21.66246041 102.64628502 -23.32774271 102.30404678 -25 102 C-25 101.34 -25 100.68 -25 100 C-26.32 100 -27.64 100 -29 100 C-29 99.34 -29 98.68 -29 98 C-29.94875 97.855625 -30.8975 97.71125 -31.875 97.5625 C-35 97 -35 97 -37 96 C-37 94.02 -37 92.04 -37 90 C-36.34 90 -35.68 90 -35 90 C-34.87625 89.319375 -34.7525 88.63875 -34.625 87.9375 C-33.90899123 84.5722588 -32.97054875 81.29986575 -32 78 C-31.34 78 -30.68 78 -30 78 C-30 77.01 -30 76.02 -30 75 C-29.34 75 -28.68 75 -28 75 C-28 74.34 -28 73.68 -28 73 C-26.35 73 -24.7 73 -23 73 C-23 73.66 -23 74.32 -23 75 C-19.535 75.495 -19.535 75.495 -16 76 C-16 76.66 -16 77.32 -16 78 C-14.35 78 -12.7 78 -11 78 C-11 78.66 -11 79.32 -11 80 C-1.43 80 8.14 80 18 80 C20.14662257 75.24643609 20.14662257 75.24643609 19 71 C16.03 70.505 16.03 70.505 13 70 C13 69.34 13 68.68 13 68 C11.02 68 9.04 68 7 68 C7 67.34 7 66.68 7 66 C5.989375 66.04125 4.97875 66.0825 3.9375 66.125 C-0.07941261 65.99747896 -3.17730544 65.18156014 -7 64 C-8.99488234 63.63729412 -10.9937811 63.29359301 -13 63 C-13 62.34 -13 61.68 -13 61 C-14.0828125 60.814375 -14.0828125 60.814375 -15.1875 60.625 C-17.95721894 60.0095069 -20.3970354 59.11555626 -23 58 C-23 57.34 -23 56.68 -23 56 C-23.99 56 -24.98 56 -26 56 C-26 55.34 -26 54.68 -26 54 C-26.60328125 53.90332031 -27.2065625 53.80664062 -27.828125 53.70703125 C-31.34777091 52.56124724 -32.33080701 50.47204467 -34.02734375 47.296875 C-36.22374655 39.85203979 -35.36018257 31.68574196 -35 24 C-34.34 24 -33.68 24 -33 24 C-32.938125 23.13375 -32.87625 22.2675 -32.8125 21.375 C-31.07063132 14.13954547 -25.79668208 10.93072736 -19.79296875 7.19921875 C-19.20128906 6.80347656 -18.60960937 6.40773437 -18 6 C-18 5.67 -18 5.34 -18 5 C-17.04287109 4.80083984 -17.04287109 4.80083984 -16.06640625 4.59765625 C-15.24011719 4.42105469 -14.41382813 4.24445313 -13.5625 4.0625 C-12.73878906 3.88847656 -11.91507813 3.71445313 -11.06640625 3.53515625 C-9.02338796 3.19247006 -9.02338796 3.19247006 -8 2 C-5.34536879 1.54540142 -2.67810862 1.29756762 0 1 C0 0.67 0 0.34 0 0 Z " fill="#063367" transform="translate(645,135)"/>
<path d="M0 0 C4.18744075 -0.05840224 8.37477565 -0.09373166 12.5625 -0.125 C13.74392578 -0.14175781 14.92535156 -0.15851563 16.14257812 -0.17578125 C22.17499917 -0.20957633 27.31952638 -0.08284033 33 2 C34.33130115 2.34135927 35.66358148 2.67925956 37 3 C37 3.66 37 4.32 37 5 C37.99 5 38.98 5 40 5 C40 5.66 40 6.32 40 7 C41.65 7.33 43.3 7.66 45 8 C45 8.66 45 9.32 45 10 C45.66 10 46.32 10 47 10 C48.625 11.375 48.625 11.375 50 13 C50 13.66 50 14.32 50 15 C50.66 15 51.32 15 52 15 C52 16.32 52 17.64 52 19 C52.66 19 53.32 19 54 19 C54.495 21.97 54.495 21.97 55 25 C55.66 25 56.32 25 57 25 C57 27.31 57 29.62 57 32 C57.66 32 58.32 32 59 32 C59 37.61 59 43.22 59 49 C58.34 49 57.68 49 57 49 C57 51.31 57 53.62 57 56 C56.34 56 55.68 56 55 56 C54.67 57.98 54.34 59.96 54 62 C53.34 62 52.68 62 52 62 C52 63.32 52 64.64 52 66 C49.625 68.75 49.625 68.75 47 71 C46.34 71 45.68 71 45 71 C45 71.66 45 72.32 45 73 C43.35 73.33 41.7 73.66 40 74 C40 74.66 40 75.32 40 76 C39.01 76 38.02 76 37 76 C37 76.66 37 77.32 37 78 C32.545 78.495 32.545 78.495 28 79 C28 79.66 28 80.32 28 81 C18.76 81 9.52 81 0 81 C0 80.34 0 79.68 0 79 C-2.64 78.67 -5.28 78.34 -8 78 C-8 77.34 -8 76.68 -8 76 C-9.32 76 -10.64 76 -12 76 C-12 75.34 -12 74.68 -12 74 C-13.65 73.67 -15.3 73.34 -17 73 C-17 72.34 -17 71.68 -17 71 C-17.66 71 -18.32 71 -19 71 C-19.33 69.68 -19.66 68.36 -20 67 C-21.32 66.67 -22.64 66.34 -24 66 C-24 65.34 -24 64.68 -24 64 C-24.66 64 -25.32 64 -26 64 C-26.33 61.69 -26.66 59.38 -27 57 C-27.66 57 -28.32 57 -29 57 C-29 55.35 -29 53.7 -29 52 C-29.66 52 -30.32 52 -31 52 C-31 44.41 -31 36.82 -31 29 C-30.34 29 -29.68 29 -29 29 C-29 27.35 -29 25.7 -29 24 C-28.34 24 -27.68 24 -27 24 C-26.67 21.69 -26.34 19.38 -26 17 C-25.34 17 -24.68 17 -24 17 C-24 16.34 -24 15.68 -24 15 C-23.34 15 -22.68 15 -22 15 C-22 14.34 -22 13.68 -22 13 C-20.57421875 11.4921875 -20.57421875 11.4921875 -18.6875 9.875 C-18.07261719 9.33617187 -17.45773437 8.79734375 -16.82421875 8.2421875 C-15 7 -15 7 -12 7 C-12 6.34 -12 5.68 -12 5 C-10.68 5 -9.36 5 -8 5 C-8 4.34 -8 3.68 -8 3 C-5.36 2.67 -2.72 2.34 0 2 C0 1.34 0 0.68 0 0 Z " fill="#FFA800" transform="translate(730,159)"/>
<path d="M0 0 C9.9 0 19.8 0 30 0 C30.33 10.56 30.66 21.12 31 32 C31.99 31.67 32.98 31.34 34 31 C34 30.34 34 29.68 34 29 C43.74352629 24.66954387 56.44704517 24.10734839 66.625 27.5 C67.73875 27.995 68.8525 28.49 70 29 C70 29.66 70 30.32 70 31 C70.61875 31.309375 71.2375 31.61875 71.875 31.9375 C73.25 32.625 74.625 33.3125 76 34 C76 34.66 76 35.32 76 36 C76.66 36 77.32 36 78 36 C81 40.38461538 81 40.38461538 81 43 C81.66 43 82.32 43 83 43 C84.21829141 49.63947741 84.1268941 56.19921811 84.09765625 62.93359375 C84.0962413 64.16666763 84.09482635 65.39974152 84.09336853 66.67018127 C84.08778941 70.59264595 84.07524068 74.51505269 84.0625 78.4375 C84.05691698 81.10351479 84.05291987 83.76952904 84.04882812 86.43554688 C84.03867947 92.95707131 84.01909982 99.47847111 84 106 C74.76 106 65.52 106 56 106 C55.94392578 101.39224609 55.94392578 101.39224609 55.88671875 96.69140625 C55.84041285 93.69272024 55.78921219 90.69415458 55.73754883 87.69555664 C55.70444155 85.62304086 55.67636612 83.55043799 55.65356445 81.4777832 C55.61975624 78.48611589 55.56742832 75.49523651 55.51171875 72.50390625 C55.50532883 71.58791153 55.4989389 70.67191681 55.49235535 69.72816467 C55.35618437 63.67273052 54.24484795 58.62556353 52 53 C51.01 53 50.02 53 49 53 C49 52.34 49 51.68 49 51 C45.7 51 42.4 51 39 51 C39 51.66 39 52.32 39 53 C38.01 53 37.02 53 36 53 C36 53.66 36 54.32 36 55 C35.34 55 34.68 55 34 55 C34 55.66 34 56.32 34 57 C33.34 57 32.68 57 32 57 C30.71659443 61.99203661 30.77495783 66.99284627 30.68359375 72.11328125 C30.66281265 73.08283249 30.64203156 74.05238373 30.62062073 75.05131531 C30.55541059 78.13830707 30.4963732 81.22538152 30.4375 84.3125 C30.39428763 86.40951364 30.35067248 88.50651903 30.30664062 90.60351562 C30.19975849 95.73559307 30.09841104 100.86775341 30 106 C25.8882744 106.02465746 21.77657722 106.04283959 17.66479492 106.05493164 C16.26504772 106.0599708 14.8653058 106.06680216 13.46557617 106.07543945 C11.45754223 106.0875232 9.44947043 106.09269807 7.44140625 106.09765625 C6.23170166 106.10289307 5.02199707 106.10812988 3.77563477 106.11352539 C1 106 1 106 0 105 C-0.09535213 103.63391674 -0.1218867 102.26294545 -0.12025452 100.89353943 C-0.12162918 100.00867859 -0.12300385 99.12381775 -0.12442017 98.21214294 C-0.12082489 97.23391068 -0.11722961 96.25567841 -0.11352539 95.24780273 C-0.11367142 94.2235318 -0.11381744 93.19926086 -0.1139679 92.14395142 C-0.11326828 88.74047771 -0.10547363 85.33705796 -0.09765625 81.93359375 C-0.09579224 79.58089732 -0.09436826 77.2282005 -0.09336853 74.87550354 C-0.08954199 68.66943295 -0.07971055 62.4633856 -0.06866455 56.25732422 C-0.05845334 49.93001622 -0.05387154 43.60270448 -0.04882812 37.27539062 C-0.0380884 24.85024854 -0.02049051 12.42512983 0 0 Z " fill="#073467" transform="translate(340,133)"/>
<path d="M0 0 C4.58357376 0.13882854 9.16678696 0.28726748 13.75 0.4375 C15.05195312 0.47681641 16.35390625 0.51613281 17.6953125 0.55664062 C18.94570313 0.59853516 20.19609375 0.64042969 21.484375 0.68359375 C22.63647461 0.72025146 23.78857422 0.75690918 24.97558594 0.79467773 C27.49300792 0.96558118 29.63365364 1.14293109 32 2 C33.046875 3.92578125 33.046875 3.92578125 33.75 6.3125 C33.99234375 7.09238281 34.2346875 7.87226563 34.484375 8.67578125 C35 11 35 11 35 15 C35.66 15 36.32 15 37 15 C37.495 19.455 37.495 19.455 38 24 C38.66 24 39.32 24 40 24 C40 24.99 40 25.98 40 27 C40.66 27 41.32 27 42 27 C42.39832031 28.35544922 42.39832031 28.35544922 42.8046875 29.73828125 C43.15789063 30.91777344 43.51109375 32.09726563 43.875 33.3125 C44.22304688 34.48425781 44.57109375 35.65601563 44.9296875 36.86328125 C45.88765453 40.10911725 45.88765453 40.10911725 48 43 C48.66 41.02 49.32 39.04 50 37 C50.66 37 51.32 37 52 37 C52 35.35 52 33.7 52 32 C52.66 32 53.32 32 54 32 C54.33 29.36 54.66 26.72 55 24 C55.66 24 56.32 24 57 24 C57 22.68 57 21.36 57 20 C57.66 20 58.32 20 59 20 C59.33 17.36 59.66 14.72 60 12 C60.66 12 61.32 12 62 12 C62.185625 10.9171875 62.185625 10.9171875 62.375 9.8125 C63.000475 6.99786251 63.7099631 4.5800738 65 2 C68.11143567 0.96285478 70.49468096 0.79968139 73.76171875 0.68359375 C74.87998047 0.64169922 75.99824219 0.59980469 77.15039062 0.55664062 C78.90125977 0.49766602 78.90125977 0.49766602 80.6875 0.4375 C81.86634766 0.39431641 83.04519531 0.35113281 84.25976562 0.30664062 C87.17305883 0.20048824 90.08643757 0.09843758 93 0 C91.9375 8.78571429 91.9375 8.78571429 91 12 C90.34 12 89.68 12 89 12 C88.87625 12.680625 88.7525 13.36125 88.625 14.0625 C87.90899123 17.4277412 86.97054875 20.70013425 86 24 C85.34 24 84.68 24 84 24 C84 25.65 84 27.3 84 29 C83.34 29 82.68 29 82 29 C81.814375 30.051875 81.814375 30.051875 81.625 31.125 C80.96161655 34.17656387 80.02788045 37.05340938 79 40 C78.34 40 77.68 40 77 40 C76.814375 41.0209375 76.814375 41.0209375 76.625 42.0625 C75.90899123 45.4277412 74.97054875 48.70013425 74 52 C73.34 52 72.68 52 72 52 C71.814375 53.0209375 71.814375 53.0209375 71.625 54.0625 C70.90899123 57.4277412 69.97054875 60.70013425 69 64 C68.34 64 67.68 64 67 64 C67 65.65 67 67.3 67 69 C66.34 69 65.68 69 65 69 C64.814375 70.85625 64.814375 70.85625 64.625 72.75 C64.24253695 75.8762197 63.69450477 78.28879237 62 81 C61.34 81 60.68 81 60 81 C59.67 83.31 59.34 85.62 59 88 C58.34 88 57.68 88 57 88 C57 88.99 57 89.98 57 91 C56.34 91 55.68 91 55 91 C55 91.99 55 92.98 55 94 C54.34 94 53.68 94 53 94 C52.505 95.98 52.505 95.98 52 98 C51.34 98 50.68 98 50 98 C50 98.66 50 99.32 50 100 C48.6875 101.625 48.6875 101.625 47 103 C46.01 103 45.02 103 44 103 C44 103.66 44 104.32 44 105 C34.35156492 109.35125503 24.3573702 109.57993783 14 108 C14 107.34 14 106.68 14 106 C11.03 105.67 8.06 105.34 5 105 C5 104.34 5 103.68 5 103 C4.34 103 3.68 103 3 103 C3 102.34 3 101.68 3 101 C2.34 101 1.68 101 1 101 C1 100.01 1 99.02 1 98 C1.66 98 2.32 98 3 98 C3.12375 97.46375 3.2475 96.9275 3.375 96.375 C4.12206016 93.5361714 5.05303364 90.77776798 6 88 C6.66 88 7.32 88 8 88 C8 86.68 8 85.36 8 84 C8.66 84 9.32 84 10 84 C10 83.01 10 82.02 10 81 C12.76276177 81.52268466 15.3260876 82.10869587 18 83 C20.22818441 83.06937062 22.45834524 83.08457084 24.6875 83.0625 C25.86699219 83.05347656 27.04648437 83.04445313 28.26171875 83.03515625 C29.16535156 83.02355469 30.06898438 83.01195312 31 83 C31.33 80.69 31.66 78.38 32 76 C31.34 76 30.68 76 30 76 C30 74.35 30 72.7 30 71 C29.34 71 28.68 71 28 71 C27.49166409 69.75336669 26.99368855 68.50250613 26.5 67.25 C26.2215625 66.55390625 25.943125 65.8578125 25.65625 65.140625 C25 63 25 63 25 59 C24.34 59 23.68 59 23 59 C21.19682779 55.03302114 20.50797009 51.3177458 20 47 C19.34 47 18.68 47 18 47 C17.49166409 45.75336669 16.99368855 44.50250613 16.5 43.25 C16.2215625 42.55390625 15.943125 41.8578125 15.65625 41.140625 C15 39 15 39 15 35 C14.34 35 13.68 35 13 35 C13 34.01 13 33.02 13 32 C12.34 32 11.68 32 11 32 C10.67 29.36 10.34 26.72 10 24 C9.34 24 8.68 24 8 24 C8 22.68 8 21.36 8 20 C7.34 20 6.68 20 6 20 C5.67 17.36 5.34 14.72 5 12 C4.34 12 3.68 12 3 12 C2.49440092 10.56445975 1.9957251 9.1264798 1.5 7.6875 C1.2215625 6.88699219 0.943125 6.08648437 0.65625 5.26171875 C0 3 0 3 0 0 Z " fill="#073467" transform="translate(516,159)"/>
<path d="M0 0 C0 0.66 0 1.32 0 2 C0.598125 2.28875 1.19625 2.5775 1.8125 2.875 C5.45629218 4.74895027 7.47541223 6.40742471 9.5625 9.875 C9.97628906 10.55304688 10.39007812 11.23109375 10.81640625 11.9296875 C12.94011768 15.64443026 14.24468583 18.43977269 14.625 22.75 C14.69976563 23.54921875 14.77453125 24.3484375 14.8515625 25.171875 C14.90054687 25.77515625 14.94953125 26.3784375 15 27 C15.33 27 15.66 27 16 27 C16.02526838 33.96003447 16.04283222 40.9200572 16.05493164 47.88012695 C16.05997341 50.24992312 16.06680665 52.61971615 16.07543945 54.98950195 C16.0875119 58.38754039 16.09322971 61.78553785 16.09765625 65.18359375 C16.10281754 66.25024765 16.10797882 67.31690155 16.11329651 68.4158783 C16.11337204 69.39681961 16.11344757 70.37776093 16.11352539 71.38842773 C16.115746 72.25668686 16.11796661 73.12494598 16.12025452 74.01951599 C16 76 16 76 15 77 C12.78144736 77.08783542 10.56011504 77.10694609 8.33984375 77.09765625 C7.12417725 77.09515869 5.90851074 77.09266113 4.65600586 77.09008789 C2.32034546 77.07643188 2.32034546 77.07643188 -0.0625 77.0625 C-4.991875 77.041875 -9.92125 77.02125 -15 77 C-15.33 60.17 -15.66 43.34 -16 26 C-16.66 26 -17.32 26 -18 26 C-18 25.34 -18 24.68 -18 24 C-18.99 24 -19.98 24 -21 24 C-21 23.34 -21 22.68 -21 22 C-24.3 22 -27.6 22 -31 22 C-31 22.66 -31 23.32 -31 24 C-31.99 24 -32.98 24 -34 24 C-34 24.66 -34 25.32 -34 26 C-34.45375 26.391875 -34.9075 26.78375 -35.375 27.1875 C-39.7618799 32.08055836 -39.33088256 39.45449567 -39.4140625 45.65234375 C-39.43342865 46.55247696 -39.4527948 47.45261017 -39.4727478 48.38002014 C-39.53214471 51.23241945 -39.57876831 54.08486001 -39.625 56.9375 C-39.66321655 58.88087619 -39.70227038 60.82423612 -39.7421875 62.76757812 C-39.83937679 67.51163022 -39.91926108 72.25552581 -40 77 C-49.57 77 -59.14 77 -69 77 C-69 50.93 -69 24.86 -69 -2 C-59.76 -2 -50.52 -2 -41 -2 C-40.67 -0.35 -40.34 1.3 -40 3 C-38.68 2.67 -37.36 2.34 -36 2 C-36 1.34 -36 0.68 -36 0 C-25.00280123 -4.8876439 -10.99719877 -4.8876439 0 0 Z " fill="#073467" transform="translate(1335,162)"/>
<path d="M0 0 C1.05638672 -0.00128906 2.11277344 -0.00257813 3.20117188 -0.00390625 C4.29880859 -0.00003906 5.39644531 0.00382813 6.52734375 0.0078125 C7.62884766 0.00394531 8.73035156 0.00007812 9.86523438 -0.00390625 C11.44788086 -0.00197266 11.44788086 -0.00197266 13.0625 0 C14.02679932 0.00112793 14.99109863 0.00225586 15.98461914 0.00341797 C18.46484375 0.1328125 18.46484375 0.1328125 21.46484375 1.1328125 C21.79484375 17.6328125 22.12484375 34.1328125 22.46484375 51.1328125 C23.12484375 51.1328125 23.78484375 51.1328125 24.46484375 51.1328125 C24.46484375 51.7928125 24.46484375 52.4528125 24.46484375 53.1328125 C28.42484375 53.7928125 32.38484375 54.4528125 36.46484375 55.1328125 C36.46484375 54.4728125 36.46484375 53.8128125 36.46484375 53.1328125 C37.45484375 53.1328125 38.44484375 53.1328125 39.46484375 53.1328125 C39.46484375 52.4728125 39.46484375 51.8128125 39.46484375 51.1328125 C40.12484375 51.1328125 40.78484375 51.1328125 41.46484375 51.1328125 C43.70959651 45.69746842 43.79133845 40.73964721 43.84375 34.95703125 C43.86074448 33.99126663 43.87773895 33.02550201 43.89524841 32.0304718 C43.94818271 28.96048423 43.98861448 25.89050954 44.02734375 22.8203125 C44.07124192 19.73232801 44.1178519 16.64444879 44.17015076 13.55659485 C44.2021693 11.63804566 44.22904007 9.71940261 44.25038147 7.80070496 C44.26387131 6.93923355 44.27736115 6.07776215 44.29125977 5.19018555 C44.30552757 4.0481794 44.30552757 4.0481794 44.32008362 2.88310242 C44.46484375 1.1328125 44.46484375 1.1328125 45.46484375 0.1328125 C54.70484375 0.1328125 63.94484375 0.1328125 73.46484375 0.1328125 C73.46484375 26.2028125 73.46484375 52.2728125 73.46484375 79.1328125 C64.55484375 79.1328125 55.64484375 79.1328125 46.46484375 79.1328125 C46.46484375 77.1528125 46.46484375 75.1728125 46.46484375 73.1328125 C45.80484375 73.1328125 45.14484375 73.1328125 44.46484375 73.1328125 C44.46484375 73.7928125 44.46484375 74.4528125 44.46484375 75.1328125 C40.29005296 79.30760329 34.17283107 80.30443939 28.4296875 80.42578125 C26.75365171 80.40621663 25.07772706 80.37100292 23.40234375 80.3203125 C22.53673828 80.30677734 21.67113281 80.29324219 20.77929688 80.27929688 C18.67420201 80.2444058 16.56943401 80.19061915 14.46484375 80.1328125 C14.46484375 79.4728125 14.46484375 78.8128125 14.46484375 78.1328125 C11.82484375 77.8028125 9.18484375 77.4728125 6.46484375 77.1328125 C6.46484375 76.4728125 6.46484375 75.8128125 6.46484375 75.1328125 C5.47484375 75.1328125 4.48484375 75.1328125 3.46484375 75.1328125 C3.46484375 74.4728125 3.46484375 73.8128125 3.46484375 73.1328125 C2.14484375 72.8028125 0.82484375 72.4728125 -0.53515625 72.1328125 C-0.53515625 71.4728125 -0.53515625 70.8128125 -0.53515625 70.1328125 C-1.19515625 70.1328125 -1.85515625 70.1328125 -2.53515625 70.1328125 C-2.53515625 69.1428125 -2.53515625 68.1528125 -2.53515625 67.1328125 C-3.19515625 67.1328125 -3.85515625 67.1328125 -4.53515625 67.1328125 C-6.96940863 62.16288056 -7.88131623 58.78675881 -7.53515625 53.1328125 C-8.19515625 53.1328125 -8.85515625 53.1328125 -9.53515625 53.1328125 C-9.53515625 35.9728125 -9.53515625 18.8128125 -9.53515625 1.1328125 C-6.05850339 0.26364929 -3.5298654 0.00412402 0 0 Z " fill="#073467" transform="translate(806.53515625,159.8671875)"/>
<path d="M0 0 C3.37492629 -0.05845196 6.74972087 -0.09374742 10.125 -0.125 C11.07632812 -0.14175781 12.02765625 -0.15851563 13.0078125 -0.17578125 C18.10369548 -0.21116933 22.22177234 0.00403149 27 2 C28.32911682 2.34976758 29.66082739 2.69096017 31 3 C31 3.66 31 4.32 31 5 C31.86625 5.185625 31.86625 5.185625 32.75 5.375 C35.02335767 6.00648824 36.9253529 6.88858191 39 8 C39 8.66 39 9.32 39 10 C39.66 10 40.32 10 41 10 C41 10.66 41 11.32 41 12 C41.99 12.33 42.98 12.66 44 13 C44 13.66 44 14.32 44 15 C44.66 15 45.32 15 46 15 C47.4375 17.125 47.4375 17.125 49 20 C49.53625 20.969375 50.0725 21.93875 50.625 22.9375 C54.3766391 31.29342345 53 39.83222175 53 49 C35.18 49.33 17.36 49.66 -1 50 C-1 50.66 -1 51.32 -1 52 C-0.34 52 0.32 52 1 52 C1.66 52.99 2.32 53.98 3 55 C5.94131891 55.98043964 7.82501665 56.11621202 10.88671875 56.09765625 C11.82451172 56.09443359 12.76230469 56.09121094 13.72851562 56.08789062 C14.70498047 56.07951172 15.68144531 56.07113281 16.6875 56.0625 C17.67556641 56.05798828 18.66363281 56.05347656 19.68164062 56.04882812 C22.12115474 56.03704303 24.56054689 56.02059011 27 56 C27 55.34 27 54.68 27 54 C27.99 54 28.98 54 30 54 C30 53.34 30 52.68 30 52 C31.32 52 32.64 52 34 52 C34 52.66 34 53.32 34 54 C34.66 54 35.32 54 36 54 C36 54.66 36 55.32 36 56 C37.485 56.495 37.485 56.495 39 57 C39 57.66 39 58.32 39 59 C39.66 59 40.32 59 41 59 C42.625 60.375 42.625 60.375 44 62 C44 62.66 44 63.32 44 64 C44.66 64 45.32 64 46 64 C47.125 68.75 47.125 68.75 46 71 C45.34 71 44.68 71 44 71 C44 71.66 44 72.32 44 73 C42.35 73.33 40.7 73.66 39 74 C39 74.66 39 75.32 39 76 C38.01 76 37.02 76 36 76 C36 76.66 36 77.32 36 78 C31.05 78.495 31.05 78.495 26 79 C26 79.66 26 80.32 26 81 C17.75 81 9.5 81 1 81 C1 80.34 1 79.68 1 79 C-2.3 78.67 -5.6 78.34 -9 78 C-9 77.34 -9 76.68 -9 76 C-9.99 76 -10.98 76 -12 76 C-12 75.34 -12 74.68 -12 74 C-13.65 73.67 -15.3 73.34 -17 73 C-17 72.34 -17 71.68 -17 71 C-17.66 71 -18.32 71 -19 71 C-19 70.34 -19 69.68 -19 69 C-19.66 69 -20.32 69 -21 69 C-21 68.34 -21 67.68 -21 67 C-21.99 66.67 -22.98 66.34 -24 66 C-24 65.34 -24 64.68 -24 64 C-24.66 64 -25.32 64 -26 64 C-26 63.01 -26 62.02 -26 61 C-26.66 61 -27.32 61 -28 61 C-30.43425238 56.03006806 -31.34615998 52.65394631 -31 47 C-31.66 47 -32.32 47 -33 47 C-33.33460729 38.98181791 -33.06181855 32.43797873 -30 25 C-29.608125 23.824375 -29.21625 22.64875 -28.8125 21.4375 C-28.4103125 20.2309375 -28.4103125 20.2309375 -28 19 C-27.34 19 -26.68 19 -26 19 C-26 18.34 -26 17.68 -26 17 C-25.34 17 -24.68 17 -24 17 C-23.896875 16.401875 -23.79375 15.80375 -23.6875 15.1875 C-22.90175967 12.68741714 -22.03081147 11.62464918 -20 10 C-19.34 10 -18.68 10 -18 10 C-18 9.34 -18 8.68 -18 8 C-16.35 7.67 -14.7 7.34 -13 7 C-13 6.34 -13 5.68 -13 5 C-12.01 5 -11.02 5 -10 5 C-10 4.34 -10 3.68 -10 3 C-6.7 2.67 -3.4 2.34 0 2 C0 1.34 0 0.68 0 0 Z M5 22 C5 22.66 5 23.32 5 24 C4.4225 24.061875 3.845 24.12375 3.25 24.1875 C0.07551517 25.33384174 -1.12848575 27.25956842 -3 30 C-3 30.66 -3 31.32 -3 32 C6.24 32 15.48 32 25 32 C23.26896411 27.2187096 23.26896411 27.2187096 20 24 C19.01 24 18.02 24 17 24 C17 23.34 17 22.68 17 22 C13.04 22 9.08 22 5 22 Z " fill="#073467" transform="translate(1068,159)"/>
<path d="M0 0 C1.13759766 -0.01224609 2.27519531 -0.02449219 3.44726562 -0.03710938 C5.10338867 -0.04000977 5.10338867 -0.04000977 6.79296875 -0.04296875 C7.80254639 -0.04707764 8.81212402 -0.05118652 9.85229492 -0.05541992 C13.10727678 0.21168993 15.75799361 1.05850279 18.8125 2.1875 C20.14161682 2.53726758 21.47332739 2.87846017 22.8125 3.1875 C22.8125 3.8475 22.8125 4.5075 22.8125 5.1875 C23.67875 5.373125 23.67875 5.373125 24.5625 5.5625 C26.83585767 6.19398824 28.7378529 7.07608191 30.8125 8.1875 C30.8125 8.8475 30.8125 9.5075 30.8125 10.1875 C31.4725 10.1875 32.1325 10.1875 32.8125 10.1875 C33.8025 12.6625 33.8025 12.6625 34.8125 15.1875 C35.4725 15.1875 36.1325 15.1875 36.8125 15.1875 C41.0016725 24.84081055 40.96807333 34.67608811 40.9453125 45.0703125 C40.94626923 46.05119843 40.94722595 47.03208435 40.94821167 48.04269409 C40.94888613 50.09128891 40.94708363 52.13988596 40.94287109 54.18847656 C40.93745403 57.33924032 40.94287035 60.48986526 40.94921875 63.640625 C40.94855897 65.63802115 40.94727989 67.63541721 40.9453125 69.6328125 C40.94733673 70.57746368 40.94936096 71.52211487 40.95144653 72.49539185 C40.94671829 73.79342239 40.94671829 73.79342239 40.94189453 75.11767578 C40.94109894 75.88169708 40.94030334 76.64571838 40.93948364 77.43289185 C40.8125 79.1875 40.8125 79.1875 39.8125 80.1875 C37.81285018 80.27508003 35.8101389 80.29446576 33.80859375 80.28515625 C31.98618164 80.28032227 31.98618164 80.28032227 30.12695312 80.27539062 C28.84755859 80.26701172 27.56816406 80.25863281 26.25 80.25 C24.96673828 80.24548828 23.68347656 80.24097656 22.36132812 80.23632812 C19.17833978 80.22449545 15.99544238 80.20801068 12.8125 80.1875 C12.8125 78.2075 12.8125 76.2275 12.8125 74.1875 C12.1525 74.1875 11.4925 74.1875 10.8125 74.1875 C10.3175 76.1675 10.3175 76.1675 9.8125 78.1875 C7.1725 78.5175 4.5325 78.8475 1.8125 79.1875 C1.8125 79.8475 1.8125 80.5075 1.8125 81.1875 C-1.35398655 81.27570927 -4.52015092 81.3282905 -7.6875 81.375 C-8.574375 81.40013672 -9.46125 81.42527344 -10.375 81.45117188 C-16.37076702 81.51730166 -20.70254238 80.62881875 -26.1875 78.1875 C-26.1875 77.5275 -26.1875 76.8675 -26.1875 76.1875 C-27.1775 76.1875 -28.1675 76.1875 -29.1875 76.1875 C-30.875 74.8125 -30.875 74.8125 -32.1875 73.1875 C-32.1875 72.5275 -32.1875 71.8675 -32.1875 71.1875 C-32.8475 71.1875 -33.5075 71.1875 -34.1875 71.1875 C-34.1875 70.1975 -34.1875 69.2075 -34.1875 68.1875 C-34.8475 68.1875 -35.5075 68.1875 -36.1875 68.1875 C-37.4156641 64.36654503 -37.32035092 60.67576961 -37.3125 56.6875 C-37.31507813 55.3778125 -37.31765625 54.068125 -37.3203125 52.71875 C-37.21674755 49.96514076 -37.02208014 47.78397153 -36.1875 45.1875 C-35.5275 45.1875 -34.8675 45.1875 -34.1875 45.1875 C-34.1875 44.1975 -34.1875 43.2075 -34.1875 42.1875 C-33.5275 42.1875 -32.8675 42.1875 -32.1875 42.1875 C-32.1875 41.5275 -32.1875 40.8675 -32.1875 40.1875 C-30.2075 39.6925 -30.2075 39.6925 -28.1875 39.1875 C-28.1875 38.5275 -28.1875 37.8675 -28.1875 37.1875 C-27.1975 37.1875 -26.2075 37.1875 -25.1875 37.1875 C-25.1875 36.5275 -25.1875 35.8675 -25.1875 35.1875 C-21.1347484 34.20501476 -17.34888263 34.10590426 -13.1875 34.1875 C-13.1875 33.5275 -13.1875 32.8675 -13.1875 32.1875 C-5.2675 31.8575 2.6525 31.5275 10.8125 31.1875 C10.3175 29.2075 10.3175 29.2075 9.8125 27.1875 C9.1525 27.1875 8.4925 27.1875 7.8125 27.1875 C7.8125 26.5275 7.8125 25.8675 7.8125 25.1875 C-0.7675 25.1875 -9.3475 25.1875 -18.1875 25.1875 C-18.1875 25.8475 -18.1875 26.5075 -18.1875 27.1875 C-19.1775 27.1875 -20.1675 27.1875 -21.1875 27.1875 C-21.1875 27.8475 -21.1875 28.5075 -21.1875 29.1875 C-22.8375 29.1875 -24.4875 29.1875 -26.1875 29.1875 C-26.5175 27.5375 -26.8475 25.8875 -27.1875 24.1875 C-27.8475 24.1875 -28.5075 24.1875 -29.1875 24.1875 C-29.1875 22.8675 -29.1875 21.5475 -29.1875 20.1875 C-29.8475 20.1875 -30.5075 20.1875 -31.1875 20.1875 C-31.5175 17.8775 -31.8475 15.5675 -32.1875 13.1875 C-32.8475 13.1875 -33.5075 13.1875 -34.1875 13.1875 C-34.1875 11.5375 -34.1875 9.8875 -34.1875 8.1875 C-31.2175 6.8675 -28.2475 5.5475 -25.1875 4.1875 C-25.1875 3.8575 -25.1875 3.5275 -25.1875 3.1875 C-24.33285156 3.05472656 -23.47820312 2.92195312 -22.59765625 2.78515625 C-21.49292969 2.60855469 -20.38820313 2.43195313 -19.25 2.25 C-18.14785156 2.07597656 -17.04570312 1.90195313 -15.91015625 1.72265625 C-10.49968983 0.65919298 -5.96202305 0.00332146 0 0 Z M-5.1875 49.1875 C-5.1875 49.8475 -5.1875 50.5075 -5.1875 51.1875 C-6.5075 51.5175 -7.8275 51.8475 -9.1875 52.1875 C-9.1875 54.4975 -9.1875 56.8075 -9.1875 59.1875 C-8.5275 59.1875 -7.8675 59.1875 -7.1875 59.1875 C-7.1875 59.8475 -7.1875 60.5075 -7.1875 61.1875 C-1.85653708 62.10663154 1.77668759 62.59095592 6.8125 60.1875 C9.22916667 58.60416667 9.22916667 58.60416667 10.8125 56.1875 C11.1425 53.8775 11.4725 51.5675 11.8125 49.1875 C6.2025 49.1875 0.5925 49.1875 -5.1875 49.1875 Z " fill="#073467" transform="translate(472.1875,158.8125)"/>
<path d="M0 0 C1.42022461 -0.01836914 1.42022461 -0.01836914 2.86914062 -0.03710938 C7.95007397 -0.04774636 12.03925163 0.24367716 16.8125 2.1875 C18.0809375 2.373125 18.0809375 2.373125 19.375 2.5625 C22.55465875 3.37779711 24.35360074 5.06088442 26.8125 7.1875 C27.8025 7.6825 27.8025 7.6825 28.8125 8.1875 C28.8125 8.8475 28.8125 9.5075 28.8125 10.1875 C29.4725 10.1875 30.1325 10.1875 30.8125 10.1875 C33.64286677 12.32753341 35.53245829 13.99132184 36.359375 17.5234375 C36.59828079 19.75088263 36.75883906 21.94837539 36.8125 24.1875 C35.1625 24.5175 33.5125 24.8475 31.8125 25.1875 C31.8125 25.8475 31.8125 26.5075 31.8125 27.1875 C25.1875 30.1875 25.1875 30.1875 21.8125 30.1875 C21.8125 30.8475 21.8125 31.5075 21.8125 32.1875 C18.59947711 34.32951526 17.54540719 34.84075876 13.8125 34.1875 C11.99366991 31.8042054 10.8125 30.22931663 10.8125 27.1875 C6.34915816 25.46456865 2.71048769 24.96509209 -2.0625 25.0625 C-3.21492187 25.08054688 -4.36734375 25.09859375 -5.5546875 25.1171875 C-6.42351563 25.14039063 -7.29234375 25.16359375 -8.1875 25.1875 C-8.1875 25.8475 -8.1875 26.5075 -8.1875 27.1875 C-8.8475 27.1875 -9.5075 27.1875 -10.1875 27.1875 C-10.1875 27.8475 -10.1875 28.5075 -10.1875 29.1875 C-10.8475 29.1875 -11.5075 29.1875 -12.1875 29.1875 C-12.5175 31.1675 -12.8475 33.1475 -13.1875 35.1875 C-13.8475 35.1875 -14.5075 35.1875 -15.1875 35.1875 C-14.6593728 42.76937896 -14.6593728 42.76937896 -13.1875 50.1875 C-12.1975 50.6825 -12.1975 50.6825 -11.1875 51.1875 C-10.8575 52.1775 -10.5275 53.1675 -10.1875 54.1875 C-9.5275 54.1875 -8.8675 54.1875 -8.1875 54.1875 C-8.1875 54.8475 -8.1875 55.5075 -8.1875 56.1875 C-2.5775 56.1875 3.0325 56.1875 8.8125 56.1875 C8.8125 55.5275 8.8125 54.8675 8.8125 54.1875 C9.4725 54.1875 10.1325 54.1875 10.8125 54.1875 C11.1425 53.1975 11.4725 52.2075 11.8125 51.1875 C12.4725 51.1875 13.1325 51.1875 13.8125 51.1875 C13.8125 49.8675 13.8125 48.5475 13.8125 47.1875 C15.1325 47.1875 16.4525 47.1875 17.8125 47.1875 C17.8125 47.8475 17.8125 48.5075 17.8125 49.1875 C18.616875 49.373125 18.616875 49.373125 19.4375 49.5625 C22.2763286 50.30956016 25.03473202 51.24053364 27.8125 52.1875 C27.8125 52.8475 27.8125 53.5075 27.8125 54.1875 C28.6478125 54.373125 28.6478125 54.373125 29.5 54.5625 C32.03364364 55.24726855 34.39171032 56.17883763 36.8125 57.1875 C36.69391732 62.13563173 36.53474474 65.2800643 33.375 69.25 C30.8125 71.1875 30.8125 71.1875 28.8125 71.1875 C28.8125 71.8475 28.8125 72.5075 28.8125 73.1875 C27.4925 73.5175 26.1725 73.8475 24.8125 74.1875 C24.8125 74.8475 24.8125 75.5075 24.8125 76.1875 C23.8225 76.1875 22.8325 76.1875 21.8125 76.1875 C21.8125 76.8475 21.8125 77.5075 21.8125 78.1875 C21.17441406 78.32027344 20.53632812 78.45304687 19.87890625 78.58984375 C18.63947266 78.85474609 18.63947266 78.85474609 17.375 79.125 C16.55128906 79.29902344 15.72757813 79.47304687 14.87890625 79.65234375 C12.83588796 79.99502994 12.83588796 79.99502994 11.8125 81.1875 C8.0903346 81.44139068 4.35478963 81.3727354 0.625 81.375 C-0.41720703 81.38724609 -1.45941406 81.39949219 -2.53320312 81.41210938 C-7.82646764 81.4222046 -12.23899231 81.29683148 -17.1875 79.1875 C-18.51661682 78.83773242 -19.84832739 78.49653983 -21.1875 78.1875 C-21.1875 77.5275 -21.1875 76.8675 -21.1875 76.1875 C-22.1775 76.1875 -23.1675 76.1875 -24.1875 76.1875 C-24.1875 75.5275 -24.1875 74.8675 -24.1875 74.1875 C-25.8375 73.8575 -27.4875 73.5275 -29.1875 73.1875 C-29.1875 72.5275 -29.1875 71.8675 -29.1875 71.1875 C-29.8475 71.1875 -30.5075 71.1875 -31.1875 71.1875 C-31.1875 70.5275 -31.1875 69.8675 -31.1875 69.1875 C-31.8475 69.1875 -32.5075 69.1875 -33.1875 69.1875 C-33.1875 68.5275 -33.1875 67.8675 -33.1875 67.1875 C-34.5075 66.8575 -35.8275 66.5275 -37.1875 66.1875 C-37.6825 63.7125 -37.6825 63.7125 -38.1875 61.1875 C-38.8475 61.1875 -39.5075 61.1875 -40.1875 61.1875 C-40.1875 59.8675 -40.1875 58.5475 -40.1875 57.1875 C-40.8475 57.1875 -41.5075 57.1875 -42.1875 57.1875 C-45.71434067 47.53205096 -45.84090176 38.05597367 -43.1875 28.1875 C-42.85362863 26.85430129 -42.5201218 25.52101102 -42.1875 24.1875 C-41.5275 24.1875 -40.8675 24.1875 -40.1875 24.1875 C-40.1875 22.8675 -40.1875 21.5475 -40.1875 20.1875 C-39.5275 20.1875 -38.8675 20.1875 -38.1875 20.1875 C-38.166875 19.48625 -38.14625 18.785 -38.125 18.0625 C-36.12053675 11.91547936 -29.32917097 8.61528065 -24.1875 5.1875 C-23.1975 5.1875 -22.2075 5.1875 -21.1875 5.1875 C-21.1875 4.5275 -21.1875 3.8675 -21.1875 3.1875 C-20.47722656 3.05472656 -19.76695312 2.92195312 -19.03515625 2.78515625 C-18.11605469 2.60855469 -17.19695313 2.43195313 -16.25 2.25 C-15.33347656 2.07597656 -14.41695312 1.90195313 -13.47265625 1.72265625 C-8.79662059 0.62758465 -5.22220904 0.0034838 0 0 Z " fill="#073467" transform="translate(996.1875,158.8125)"/>
<path d="M0 0 C1.06605469 -0.00128906 2.13210938 -0.00257813 3.23046875 -0.00390625 C4.91462891 0.00189453 4.91462891 0.00189453 6.6328125 0.0078125 C8.30537109 0.00201172 8.30537109 0.00201172 10.01171875 -0.00390625 C11.61466797 -0.00197266 11.61466797 -0.00197266 13.25 0 C14.23339355 0.00112793 15.21678711 0.00225586 16.22998047 0.00341797 C18.7578125 0.1328125 18.7578125 0.1328125 21.7578125 1.1328125 C21.7578125 7.0728125 21.7578125 13.0128125 21.7578125 19.1328125 C22.4178125 18.8028125 23.0778125 18.4728125 23.7578125 18.1328125 C26.31168742 18.06107444 28.83058011 18.03993518 31.3828125 18.0703125 C35.0334375 18.10125 35.0334375 18.10125 38.7578125 18.1328125 C38.7578125 25.7228125 38.7578125 33.3128125 38.7578125 41.1328125 C33.1478125 41.1328125 27.5378125 41.1328125 21.7578125 41.1328125 C21.7578125 51.0328125 21.7578125 60.9328125 21.7578125 71.1328125 C22.4178125 71.1328125 23.0778125 71.1328125 23.7578125 71.1328125 C24.0878125 71.7928125 24.4178125 72.4528125 24.7578125 73.1328125 C29.3778125 73.1328125 33.9978125 73.1328125 38.7578125 73.1328125 C38.7578125 74.1228125 38.7578125 75.1128125 38.7578125 76.1328125 C39.4178125 76.1328125 40.0778125 76.1328125 40.7578125 76.1328125 C41.2528125 81.0828125 41.2528125 81.0828125 41.7578125 86.1328125 C42.4178125 86.1328125 43.0778125 86.1328125 43.7578125 86.1328125 C44.4178125 88.7728125 45.0778125 91.4128125 45.7578125 94.1328125 C38.37684214 97.72705939 32.28752737 98.66588671 24.1328125 98.3828125 C23.12863281 98.36476563 22.12445312 98.34671875 21.08984375 98.328125 C18.64478598 98.28155247 16.20184438 98.21618278 13.7578125 98.1328125 C13.7578125 97.4728125 13.7578125 96.8128125 13.7578125 96.1328125 C11.1178125 95.8028125 8.4778125 95.4728125 5.7578125 95.1328125 C5.7578125 94.4728125 5.7578125 93.8128125 5.7578125 93.1328125 C4.7678125 93.1328125 3.7778125 93.1328125 2.7578125 93.1328125 C2.7578125 92.4728125 2.7578125 91.8128125 2.7578125 91.1328125 C1.2728125 90.6378125 1.2728125 90.6378125 -0.2421875 90.1328125 C-0.2421875 89.4728125 -0.2421875 88.8128125 -0.2421875 88.1328125 C-0.9021875 88.1328125 -1.5621875 88.1328125 -2.2421875 88.1328125 C-2.5721875 86.8128125 -2.9021875 85.4928125 -3.2421875 84.1328125 C-3.9021875 84.1328125 -4.5621875 84.1328125 -5.2421875 84.1328125 C-6.41283483 79.51098344 -6.37016441 75.0634453 -6.33984375 70.33203125 C-6.3384288 69.49565628 -6.33701385 68.65928131 -6.33555603 67.79756165 C-6.32997934 65.1384415 -6.31743115 62.479407 -6.3046875 59.8203125 C-6.29966949 58.01237101 -6.29510711 56.2044282 -6.29101562 54.39648438 C-6.28001754 49.97522766 -6.262769 45.55403457 -6.2421875 41.1328125 C-10.2021875 41.1328125 -14.1621875 41.1328125 -18.2421875 41.1328125 C-18.26901737 37.48693081 -18.28894319 33.84124404 -18.3046875 30.1953125 C-18.31306641 29.15439453 -18.32144531 28.11347656 -18.33007812 27.04101562 C-18.33491211 25.55698242 -18.33491211 25.55698242 -18.33984375 24.04296875 C-18.34508057 23.12652588 -18.35031738 22.21008301 -18.35571289 21.26586914 C-18.2421875 19.1328125 -18.2421875 19.1328125 -17.2421875 18.1328125 C-15.76569874 18.03457254 -14.28443333 18.00307731 -12.8046875 18.0078125 C-11.60005859 18.00394531 -11.60005859 18.00394531 -10.37109375 18 C-8.2421875 18.1328125 -8.2421875 18.1328125 -6.2421875 19.1328125 C-6.25378906 17.84503906 -6.26539063 16.55726563 -6.27734375 15.23046875 C-6.2867202 13.55208478 -6.29582055 11.87369924 -6.3046875 10.1953125 C-6.31306641 9.34517578 -6.32144531 8.49503906 -6.33007812 7.61914062 C-6.33330078 6.81025391 -6.33652344 6.00136719 -6.33984375 5.16796875 C-6.34508057 4.419104 -6.35031738 3.67023926 -6.35571289 2.89868164 C-6.10841505 -0.94799644 -3.19120789 0.00366866 0 0 Z " fill="#073467" transform="translate(1374.2421875,141.8671875)"/>
<path d="M0 0 C3.63 0 7.26 0 11 0 C11 8.91 11 17.82 11 27 C5.72 27 0.44 27 -5 27 C-5 27.66 -5 28.32 -5 29 C-6.66279327 30.0064275 -8.32983484 31.00585407 -10 32 C-13.77710382 37.66565573 -13.1715284 45.21699201 -13.31640625 51.875 C-13.33718735 52.68493408 -13.35796844 53.49486816 -13.37937927 54.3293457 C-13.44413656 56.88615424 -13.50341194 59.44305481 -13.5625 62 C-13.60575566 63.74610281 -13.64937204 65.49219672 -13.69335938 67.23828125 C-13.80041167 71.49209513 -13.90003077 75.74599034 -14 80 C-23.57 80 -33.14 80 -43 80 C-43.02255146 69.84733453 -43.04091534 59.69468557 -43.05181217 49.54200077 C-43.05704089 44.82820267 -43.06413834 40.11442253 -43.07543945 35.40063477 C-43.08626873 30.85544596 -43.09227692 26.31027448 -43.09487724 21.76507378 C-43.09673142 20.02705042 -43.10035189 18.28902806 -43.10573006 16.55101204 C-43.11294103 14.12521405 -43.11399092 11.69948854 -43.11352539 9.27368164 C-43.11712067 8.54791931 -43.12071594 7.82215698 -43.12442017 7.07440186 C-43.11405216 2.11405216 -43.11405216 2.11405216 -42 1 C-40.01242972 0.90016942 -38.0213248 0.86919247 -36.03125 0.8671875 C-34.82082031 0.86589844 -33.61039063 0.86460937 -32.36328125 0.86328125 C-31.08839844 0.86714844 -29.81351563 0.87101563 -28.5 0.875 C-26.58767578 0.86919922 -26.58767578 0.86919922 -24.63671875 0.86328125 C-22.82107422 0.86521484 -22.82107422 0.86521484 -20.96875 0.8671875 C-19.84919922 0.86831543 -18.72964844 0.86944336 -17.57617188 0.87060547 C-15 1 -15 1 -14 2 C-13.95936168 3.66617115 -13.957279 5.33388095 -14 7 C-13.34 7 -12.68 7 -12 7 C-12 6.34 -12 5.68 -12 5 C-9.68789868 2.68789868 -8.58208523 2.53815111 -5.4375 1.9375 C-2.4322803 1.53522134 -2.4322803 1.53522134 0 0 Z " fill="#073467" transform="translate(938,159)"/>
<path d="M0 0 C5.06286653 0.42190554 7.17811849 1.55965058 10.5 5.375 C19.54752091 16.07996591 24.26376207 28.41475529 26.60546875 42.13671875 C26.82436674 44.00613146 26.82436674 44.00613146 28 45 C28.7150344 49.85201916 28.49023107 53.15741535 26 57.4375 C17.60218249 64.61063579 3.40583539 62.67446189 -6.95703125 62.24267578 C-16.69190542 61.46632269 -27.99527354 58.11389103 -35 51 C-35.78515625 48.87890625 -35.78515625 48.87890625 -36 47 C-35 46 -35 46 -32.8828125 45.88256836 C-26.23931391 45.93020676 -19.63228714 46.18844603 -13 46.5625 C-5.58310287 46.94716788 1.62972935 47.14609472 9 46 C9.97321258 32.99679864 5.75767396 21.1183471 0.84326172 9.27856445 C-1.06955833 4.51473166 -1.06955833 4.51473166 -0.66796875 1.54296875 C-0.33732422 0.77919922 -0.33732422 0.77919922 0 0 Z " fill="#FFA800" transform="translate(1204,39)"/>
<path d="M0 0 C4.62 0 9.24 0 14 0 C14 0.66 14 1.32 14 2 C15.175625 2.4640625 15.175625 2.4640625 16.375 2.9375 C20.81975737 4.73656846 20.81975737 4.73656846 22.625 7.375 C24.81333874 13.14425669 25.149676 18.72293209 23.0859375 24.60546875 C21.3075692 28.12204865 19.54696185 30.54875647 16.5 33.0625 C11.03834955 34.52544208 5.61839161 34.2250691 0 34 C0 33.34 0 32.68 0 32 C-1.65 31.67 -3.3 31.34 -5 31 C-5 30.34 -5 29.68 -5 29 C-5.66 29 -6.32 29 -7 29 C-11.1675056 23.13944525 -11.94065701 18.14243052 -11 11 C-9.9765625 8.66796875 -9.9765625 8.66796875 -9 7 C-8.34 7 -7.68 7 -7 7 C-7 6.34 -7 5.68 -7 5 C-4.4385343 2.70351351 -3.52032428 2 0 2 C0 1.34 0 0.68 0 0 Z " fill="#073467" transform="translate(1434,206)"/>
<path d="M0 0 C2.495625 -0.061875 4.99125 -0.12375 7.5625 -0.1875 C8.33408447 -0.21481201 9.10566895 -0.24212402 9.90063477 -0.27026367 C15.69891805 -0.33898297 20.43712182 0.76781578 24.9375 4.6875 C27.06433372 9.31649104 26.44342259 13.55887657 25 18.25 C22.27631566 21.99506597 19.35227649 23.5104029 15 25 C11.47322459 25.44561652 8.04692743 25.38298036 4.5 25.25 C1.365 25.1675 -1.77 25.085 -5 25 C-3.35 16.75 -1.7 8.5 0 0 Z " fill="#FFA800" transform="translate(62,150)"/>
<path d="M0 0 C0.33 0 0.66 0 1 0 C1 24.75 1 49.5 1 75 C0.67 75 0.34 75 0 75 C0 50.25 0 25.5 0 0 Z " fill="#073467" transform="translate(881,162)"/>
<path d="M0 0 C0.33 0 0.66 0 1 0 C1 6.93 1 13.86 1 21 C0.67 21 0.34 21 0 21 C0 14.07 0 7.14 0 0 Z " fill="#073467" transform="translate(1247,178)"/>
<path d="M0 0 C0.33 0 0.66 0 1 0 C1 5.94 1 11.88 1 18 C0.67 18 0.34 18 0 18 C0 12.06 0 6.12 0 0 Z " fill="#073467" transform="translate(1414,162)"/>
<path d="" fill="#073467" transform="translate(0,0)"/>
</svg>
